<svg width="71" height="20" viewBox="0 0 71 20" fill="none" xmlns="http://www.w3.org/2000/svg">
<g clip-path="url(#clip0_202_16)">
<path d="M11.1514 8.34761C11.1514 8.44582 11.0934 8.55297 10.9773 8.66904L8.54652 11.0396L9.12241 14.3878C9.12688 14.419 9.12911 14.4637 9.12911 14.5217C9.12911 14.6155 9.10567 14.6947 9.0588 14.7594C9.01192 14.8242 8.94384 14.8565 8.85456 14.8565C8.76974 14.8565 8.68045 14.8298 8.5867 14.7762L5.58 13.1958L2.57331 14.7762C2.47509 14.8298 2.38581 14.8565 2.30545 14.8565C2.2117 14.8565 2.14139 14.8242 2.09451 14.7594C2.04764 14.6947 2.0242 14.6155 2.0242 14.5217C2.0242 14.4949 2.02866 14.4503 2.03759 14.3878L2.61349 11.0396L0.175986 8.66904C0.064379 8.5485 0.00857544 8.44136 0.00857544 8.34761C0.00857544 8.18243 0.133575 8.07975 0.383575 8.03957L3.74518 7.55073L5.25188 4.50386C5.3367 4.32082 5.44608 4.2293 5.58 4.2293C5.71393 4.2293 5.82331 4.32082 5.90813 4.50386L7.41483 7.55073L10.7764 8.03957C11.0264 8.07975 11.1514 8.18243 11.1514 8.34761Z" fill="#F2D640"/>
</g>
<g clip-path="url(#clip1_202_16)">
<path d="M25.9214 8.34761C25.9214 8.44582 25.8634 8.55297 25.7473 8.66904L23.3165 11.0396L23.8924 14.3878C23.8969 14.419 23.8991 14.4637 23.8991 14.5217C23.8991 14.6155 23.8757 14.6947 23.8288 14.7594C23.7819 14.8242 23.7138 14.8565 23.6245 14.8565C23.5397 14.8565 23.4504 14.8298 23.3567 14.7762L20.35 13.1958L17.3433 14.7762C17.2451 14.8298 17.1558 14.8565 17.0754 14.8565C16.9817 14.8565 16.9114 14.8242 16.8645 14.7594C16.8176 14.6947 16.7942 14.6155 16.7942 14.5217C16.7942 14.4949 16.7987 14.4503 16.8076 14.3878L17.3835 11.0396L14.946 8.66904C14.8344 8.5485 14.7786 8.44136 14.7786 8.34761C14.7786 8.18243 14.9036 8.07975 15.1536 8.03957L18.5152 7.55073L20.0219 4.50386C20.1067 4.32082 20.2161 4.2293 20.35 4.2293C20.4839 4.2293 20.5933 4.32082 20.6781 4.50386L22.1848 7.55073L25.5464 8.03957C25.7964 8.07975 25.9214 8.18243 25.9214 8.34761Z" fill="#F2D640"/>
</g>
<g clip-path="url(#clip2_202_16)">
<path d="M40.6914 8.34761C40.6914 8.44582 40.6334 8.55297 40.5173 8.66904L38.0865 11.0396L38.6624 14.3878C38.6669 14.419 38.6691 14.4637 38.6691 14.5217C38.6691 14.6155 38.6457 14.6947 38.5988 14.7594C38.5519 14.8242 38.4839 14.8565 38.3946 14.8565C38.3097 14.8565 38.2205 14.8298 38.1267 14.7762L35.12 13.1958L32.1133 14.7762C32.0151 14.8298 31.9258 14.8565 31.8455 14.8565C31.7517 14.8565 31.6814 14.8242 31.6345 14.7594C31.5876 14.6947 31.5642 14.6155 31.5642 14.5217C31.5642 14.4949 31.5687 14.4503 31.5776 14.3878L32.1535 11.0396L29.716 8.66904C29.6044 8.5485 29.5486 8.44136 29.5486 8.34761C29.5486 8.18243 29.6736 8.07975 29.9236 8.03957L33.2852 7.55073L34.7919 4.50386C34.8767 4.32082 34.9861 4.2293 35.12 4.2293C35.2539 4.2293 35.3633 4.32082 35.4481 4.50386L36.9548 7.55073L40.3164 8.03957C40.5664 8.07975 40.6914 8.18243 40.6914 8.34761Z" fill="#F2D640"/>
</g>
<g clip-path="url(#clip3_202_16)">
<path d="M55.4614 8.34761C55.4614 8.44582 55.4034 8.55297 55.2873 8.66904L52.8565 11.0396L53.4324 14.3878C53.4369 14.419 53.4391 14.4637 53.4391 14.5217C53.4391 14.6155 53.4157 14.6947 53.3688 14.7594C53.3219 14.8242 53.2538 14.8565 53.1646 14.8565C53.0797 14.8565 52.9904 14.8298 52.8967 14.7762L49.89 13.1958L46.8833 14.7762C46.7851 14.8298 46.6958 14.8565 46.6154 14.8565C46.5217 14.8565 46.4514 14.8242 46.4045 14.7594C46.3576 14.6947 46.3342 14.6155 46.3342 14.5217C46.3342 14.4949 46.3387 14.4503 46.3476 14.3878L46.9235 11.0396L44.486 8.66904C44.3744 8.5485 44.3186 8.44136 44.3186 8.34761C44.3186 8.18243 44.4436 8.07975 44.6936 8.03957L48.0552 7.55073L49.5619 4.50386C49.6467 4.32082 49.7561 4.2293 49.89 4.2293C50.0239 4.2293 50.1333 4.32082 50.2181 4.50386L51.7248 7.55073L55.0864 8.03957C55.3364 8.07975 55.4614 8.18243 55.4614 8.34761Z" fill="#F2D640"/>
</g>
<g clip-path="url(#clip4_202_16)">
<path d="M70.2315 8.34761C70.2315 8.44582 70.1734 8.55297 70.0573 8.66904L67.6265 11.0396L68.2024 14.3878C68.2069 14.419 68.2091 14.4637 68.2091 14.5217C68.2091 14.6155 68.1857 14.6947 68.1388 14.7594C68.0919 14.8242 68.0239 14.8565 67.9346 14.8565C67.8498 14.8565 67.7605 14.8298 67.6667 14.7762L64.66 13.1958L61.6533 14.7762C61.5551 14.8298 61.4658 14.8565 61.3855 14.8565C61.2917 14.8565 61.2214 14.8242 61.1745 14.7594C61.1277 14.6947 61.1042 14.6155 61.1042 14.5217C61.1042 14.4949 61.1087 14.4503 61.1176 14.3878L61.6935 11.0396L59.256 8.66904C59.1444 8.5485 59.0886 8.44136 59.0886 8.34761C59.0886 8.18243 59.2136 8.07975 59.4636 8.03957L62.8252 7.55073L64.3319 4.50386C64.4167 4.32082 64.5261 4.2293 64.66 4.2293C64.7939 4.2293 64.9033 4.32082 64.9881 4.50386L66.4948 7.55073L69.8565 8.03957C70.1065 8.07975 70.2315 8.18243 70.2315 8.34761Z" fill="#F2D640"/>
</g>
<defs>
<clipPath id="clip0_202_16">
<rect width="11.16" height="12" fill="white" transform="matrix(1 0 0 -1 0 16.015)"/>
</clipPath>
<clipPath id="clip1_202_16">
<rect width="11.16" height="12" fill="white" transform="matrix(1 0 0 -1 14.77 16.015)"/>
</clipPath>
<clipPath id="clip2_202_16">
<rect width="11.16" height="12" fill="white" transform="matrix(1 0 0 -1 29.54 16.015)"/>
</clipPath>
<clipPath id="clip3_202_16">
<rect width="11.16" height="12" fill="white" transform="matrix(1 0 0 -1 44.31 16.015)"/>
</clipPath>
<clipPath id="clip4_202_16">
<rect width="11.16" height="12" fill="white" transform="matrix(1 0 0 -1 59.08 16.015)"/>
</clipPath>
</defs>
</svg>
