<svg width="23" height="23" viewBox="0 0 23 23" fill="none" xmlns="http://www.w3.org/2000/svg">
<g clip-path="url(#clip0_202_1045)">
<path d="M2.78846 5.36713L5.32692 1.98251H15.4808L18.0192 5.36713M2.78846 5.36713V17.2133C2.78846 17.6621 2.96676 18.0926 3.28413 18.4099C3.60149 18.7273 4.03194 18.9056 4.48077 18.9056H16.3269C16.7757 18.9056 17.2062 18.7273 17.5236 18.4099C17.8409 18.0926 18.0192 17.6621 18.0192 17.2133V5.36713M2.78846 5.36713H18.0192M13.7885 8.75174C13.7885 9.6494 13.4319 10.5103 12.7971 11.145C12.1624 11.7798 11.3015 12.1364 10.4038 12.1364C9.50619 12.1364 8.6453 11.7798 8.01056 11.145C7.37582 10.5103 7.01923 9.6494 7.01923 8.75174" stroke="#141F36" stroke-linecap="round" stroke-linejoin="round"/>
</g>
<defs>
<clipPath id="clip0_202_1045">
<rect width="22" height="22" fill="white" transform="translate(0.25 0.290192)"/>
</clipPath>
</defs>
</svg>
