<svg width="328" height="20" viewBox="0 0 328 20" fill="none" xmlns="http://www.w3.org/2000/svg">
<g clip-path="url(#clip0_232_5)">
<path opacity="0.07" d="M57.8861 0.314514H32.6328C31.2912 0.314514 30.2653 1.34122 30.2653 2.68201V16.887C30.2653 18.2286 31.3701 19.2545 32.6328 19.2545H57.8861C59.2277 19.2545 60.2536 18.2286 60.2536 16.887V2.68201C60.2536 1.34122 59.1488 0.314514 57.8861 0.314514Z" fill="#141F36"/>
<path d="M57.8861 1.1037C58.7542 1.1037 59.4644 1.81395 59.4644 2.68203V16.887C59.4644 17.7551 58.7542 18.4654 57.8861 18.4654H32.6328C31.7647 18.4654 31.0544 17.7551 31.0544 16.887V2.68203C31.0544 1.81395 31.7647 1.1037 32.6328 1.1037H57.8861Z" fill="white"/>
<path d="M42.6925 13.1032V7.67207C42.6925 6.67274 43.5325 5.86267 44.5687 5.86267L46.2314 5.86514C47.2645 5.86705 48.101 6.67544 48.101 7.67174V8.82773C48.101 9.82706 47.261 10.6371 46.2248 10.6371H43.8753" stroke="#939598" stroke-width="0.340579" stroke-miterlimit="10" stroke-linecap="round" stroke-linejoin="round"/>
<path d="M48.5658 5.86212H49.287C49.4912 5.86215 49.687 5.9404 49.8314 6.07964C49.9757 6.21889 50.0568 6.40774 50.0568 6.60465V10.6615" stroke="#939598" stroke-width="0.340579" stroke-miterlimit="10" stroke-linecap="round" stroke-linejoin="round"/>
<path d="M49.9023 5.23357L49.5752 4.9181C49.5559 4.89949 49.5406 4.8774 49.5302 4.85308C49.5197 4.82877 49.5143 4.80271 49.5143 4.77638C49.5143 4.75006 49.5197 4.724 49.5302 4.69968C49.5406 4.67537 49.5559 4.65328 49.5752 4.63467L49.9021 4.31943C49.9411 4.28181 49.9941 4.26068 50.0492 4.26068C50.1044 4.26068 50.1573 4.28181 50.1964 4.31943L50.5233 4.63467C50.5426 4.65328 50.5579 4.67537 50.5683 4.69968C50.5788 4.724 50.5841 4.75006 50.5841 4.77638C50.5841 4.80271 50.5788 4.82877 50.5683 4.85308C50.5579 4.8774 50.5426 4.89949 50.5233 4.9181L50.1962 5.23357C50.177 5.25218 50.154 5.26695 50.1288 5.27702C50.1036 5.2871 50.0766 5.29228 50.0493 5.29228C50.022 5.29228 49.995 5.2871 49.9698 5.27702C49.9446 5.26695 49.9216 5.25218 49.9023 5.23357Z" fill="#32BCAD"/>
<path d="M51.4407 5.85852H52.1559C52.5239 5.85852 52.8768 5.99945 53.137 6.2503L54.81 7.86381C54.8616 7.91351 54.9227 7.95294 54.9901 7.97984C55.0574 8.00674 55.1296 8.02059 55.2025 8.02059C55.2753 8.02059 55.3475 8.00674 55.4149 7.97984C55.4822 7.95294 55.5434 7.91351 55.5949 7.86381L57.2618 6.25625C57.522 6.00535 57.8749 5.86438 58.2428 5.86436H58.8244" stroke="#939598" stroke-width="0.340579" stroke-miterlimit="10" stroke-linecap="round" stroke-linejoin="round"/>
<path d="M51.4407 10.6261H52.1559C52.5239 10.6261 52.8768 10.4851 53.137 10.2342L54.81 8.62077C54.8616 8.57106 54.9227 8.53164 54.9901 8.50474C55.0574 8.47783 55.1296 8.46399 55.2025 8.46399C55.2753 8.46399 55.3475 8.47783 55.4149 8.50474C55.4822 8.53164 55.5434 8.57106 55.5949 8.62077L57.2618 10.2283C57.522 10.4792 57.8749 10.6202 58.2428 10.6202H58.8244" stroke="#939598" stroke-width="0.340579" stroke-miterlimit="10" stroke-linecap="round" stroke-linejoin="round"/>
<path d="M38.4279 11.6568C38.069 11.6568 37.7314 11.5219 37.4775 11.2773L36.105 9.95372C36.0087 9.86055 35.8407 9.86089 35.7445 9.95372L34.367 11.2821C34.2425 11.4028 34.0943 11.4985 33.9312 11.5636C33.768 11.6288 33.5931 11.6621 33.4165 11.6616H33.1461L34.8843 13.338C35.4271 13.8615 36.3072 13.8615 36.8502 13.338L38.5933 11.6568H38.4279Z" fill="#32BCAD"/>
<path d="M33.4165 6.97522C33.7755 6.97522 34.1131 7.11008 34.367 7.35474L35.7445 8.68336C35.7923 8.72939 35.8572 8.75524 35.9248 8.75521C35.9924 8.75519 36.0572 8.72931 36.105 8.68325L37.4775 7.35957C37.602 7.23887 37.7502 7.14318 37.9133 7.07804C38.0765 7.01289 38.2514 6.97959 38.4279 6.98005H38.5933L36.8502 5.29899C36.3072 4.7755 35.4271 4.7755 34.8842 5.29899L33.1461 6.97522H33.4165Z" fill="#32BCAD"/>
<path d="M40.0351 8.3706L38.9817 7.35464C38.9585 7.36363 38.9335 7.36925 38.9069 7.36925H38.4279C38.1787 7.36992 37.9397 7.46539 37.763 7.63493L36.3907 8.95849C36.3295 9.01753 36.2569 9.06434 36.177 9.09624C36.0971 9.12814 36.0114 9.1445 35.9249 9.14438C35.8384 9.14451 35.7527 9.12817 35.6728 9.09629C35.5928 9.06441 35.5202 9.01762 35.4591 8.9586L34.0815 7.63021C33.9048 7.46061 33.6658 7.36509 33.4165 7.36442H32.8276C32.8025 7.36442 32.779 7.3588 32.7568 7.35071L31.6993 8.3706C31.1563 8.89409 31.1563 9.74283 31.6993 10.2664L32.7568 11.2863C32.779 11.2782 32.8025 11.2725 32.8276 11.2725H33.4165C33.6658 11.2718 33.9048 11.1764 34.0815 11.0068L35.4589 9.67843C35.7079 9.4386 36.1418 9.43849 36.3907 9.67866L37.763 11.002C37.9397 11.1716 38.1787 11.2671 38.4279 11.2678H38.9069C38.9335 11.2678 38.9585 11.2734 38.9817 11.2824L40.0352 10.2664C40.578 9.74283 40.578 8.89421 40.0352 8.37049" fill="#32BCAD"/>
<path d="M44.1222 12.6414C44.0446 12.6414 43.9541 12.6595 43.8647 12.6794V13.0104C43.9266 13.0322 43.9974 13.0428 44.0653 13.0428C44.2374 13.0428 44.319 12.9867 44.319 12.8405C44.319 12.7031 44.2522 12.6415 44.1224 12.6415M43.8065 13.2561V12.6016H43.8539L43.8588 12.6301C43.9384 12.6121 44.0485 12.5884 44.1273 12.5884C44.1912 12.5884 44.2522 12.5977 44.3032 12.6376C44.3623 12.6841 44.381 12.759 44.381 12.8406C44.381 12.926 44.3515 13.0067 44.2708 13.0512C44.2148 13.0815 44.1391 13.0939 44.0712 13.0939C44.0013 13.0939 43.9345 13.0834 43.8646 13.0635V13.2561H43.8065Z" fill="#939598"/>
<path d="M44.8131 12.6395C44.641 12.6395 44.5642 12.6917 44.5642 12.8378C44.5642 12.979 44.6399 13.0426 44.8131 13.0426C44.9842 13.0426 45.0608 12.9914 45.0608 12.8453C45.0608 12.704 44.9851 12.6395 44.8131 12.6395ZM45.0343 13.0426C44.9772 13.0824 44.9006 13.0939 44.8131 13.0939C44.7236 13.0939 44.6468 13.0815 44.5907 13.0426C44.5278 12.9999 44.5022 12.9298 44.5022 12.8416C44.5022 12.7543 44.5278 12.6832 44.5907 12.6395C44.6468 12.6007 44.7236 12.5883 44.8131 12.5883C44.9015 12.5883 44.9773 12.6006 45.0343 12.6395C45.0984 12.6832 45.1228 12.7543 45.1228 12.8406C45.1228 12.9288 45.0972 13 45.0343 13.0426Z" fill="#939598"/>
<path d="M45.8491 13.0807L45.6573 12.6833H45.6533L45.4645 13.0807H45.4123L45.2078 12.6016H45.2718L45.4419 13.0038H45.4459L45.6307 12.6016H45.6837L45.8737 13.0038H45.8775L46.0438 12.6016H46.1057L45.9012 13.0807H45.8491Z" fill="#939598"/>
<path d="M46.4767 12.6386C46.3174 12.6386 46.2632 12.7068 46.2535 12.8055H46.7C46.6951 12.6965 46.6371 12.6386 46.4767 12.6386ZM46.4748 13.0938C46.3792 13.0938 46.3174 13.0806 46.2683 13.0407C46.2102 12.9924 46.1905 12.9222 46.1905 12.8416C46.1905 12.7647 46.2171 12.6831 46.2829 12.6367C46.3381 12.5997 46.4059 12.5884 46.4767 12.5884C46.5407 12.5884 46.6144 12.595 46.6753 12.6348C46.7472 12.6813 46.761 12.7629 46.761 12.8557H46.2515C46.2535 12.9544 46.2869 13.0417 46.4796 13.0417C46.5711 13.0417 46.6567 13.0275 46.7364 13.0142V13.0644C46.6536 13.0787 46.5623 13.0938 46.4748 13.0938Z" fill="#939598"/>
<path d="M46.9275 13.0806V12.6015H46.9747L46.9796 12.6301C47.0848 12.6046 47.134 12.5884 47.2266 12.5884H47.2334V12.6414H47.2196C47.1419 12.6414 47.0947 12.6519 46.9856 12.6794V13.0806H46.9275Z" fill="#939598"/>
<path d="M47.5705 12.6386C47.4111 12.6386 47.357 12.7068 47.3472 12.8055H47.7937C47.7888 12.6965 47.7308 12.6386 47.5705 12.6386ZM47.5685 13.0938C47.473 13.0938 47.4111 13.0806 47.362 13.0407C47.3038 12.9924 47.2842 12.9222 47.2842 12.8416C47.2842 12.7647 47.3108 12.6831 47.3767 12.6367C47.4318 12.5997 47.4996 12.5884 47.5705 12.5884C47.6344 12.5884 47.7082 12.595 47.769 12.6348C47.8409 12.6813 47.8547 12.7629 47.8547 12.8557H47.3452C47.3472 12.9544 47.3806 13.0417 47.5734 13.0417C47.6649 13.0417 47.7504 13.0275 47.8301 13.0142V13.0644C47.7474 13.0787 47.656 13.0938 47.5685 13.0938Z" fill="#939598"/>
<path d="M48.4904 12.6719C48.4259 12.6501 48.358 12.6392 48.2897 12.6395C48.1177 12.6395 48.036 12.6956 48.036 12.8416C48.036 12.9801 48.1029 13.0408 48.2326 13.0408C48.3103 13.0408 48.4009 13.0228 48.4904 13.0037V12.6719ZM48.5012 13.0807L48.4963 13.0521C48.4166 13.0701 48.3064 13.0939 48.2277 13.0939C48.1638 13.0939 48.1029 13.0854 48.0517 13.0446C47.9926 12.998 47.974 12.9232 47.974 12.8416C47.974 12.7562 48.0035 12.6756 48.0841 12.632C48.1402 12.6007 48.2159 12.5884 48.2848 12.5884C48.3536 12.5884 48.4206 12.5998 48.4904 12.6187V12.3996H48.5484V13.0807H48.5012Z" fill="#939598"/>
<path d="M49.3992 12.6415C49.3215 12.6415 49.2311 12.6595 49.1416 12.6794V13.0095C49.2045 13.0322 49.2744 13.0428 49.3423 13.0428C49.5143 13.0428 49.5958 12.9867 49.5958 12.8405C49.5958 12.7032 49.5291 12.6416 49.3992 12.6416M49.5477 13.0512C49.4918 13.0816 49.416 13.0939 49.3481 13.0939C49.2725 13.0934 49.1975 13.0812 49.1258 13.0578L49.1228 13.0807H49.0834V12.3996H49.1416V12.6282C49.2212 12.6112 49.3284 12.5884 49.4041 12.5884C49.4682 12.5884 49.5291 12.5977 49.5801 12.6376C49.6392 12.6842 49.6578 12.759 49.6578 12.8406C49.6578 12.926 49.6284 13.0067 49.5477 13.0512Z" fill="#939598"/>
<path d="M49.7349 13.2646V13.2125C49.7634 13.2153 49.79 13.2172 49.8087 13.2172C49.8805 13.2172 49.9238 13.1973 49.9641 13.1185L49.9827 13.0807L49.7231 12.6016H49.79L50.0123 13.0151H50.0162L50.2277 12.6016H50.2935L50.0142 13.1394C49.9632 13.2372 49.908 13.2694 49.8068 13.2694C49.784 13.2694 49.7596 13.2674 49.7349 13.2646Z" fill="#939598"/>
<path d="M51.0934 12.8075H50.9006V12.9754H51.0943C51.2271 12.9754 51.2772 12.9611 51.2772 12.891C51.2772 12.8159 51.2085 12.8075 51.0933 12.8075M51.058 12.5353H50.9007V12.706H51.0589C51.1897 12.706 51.2419 12.6908 51.2419 12.6197C51.2419 12.5438 51.1759 12.5353 51.058 12.5353ZM51.3569 13.0352C51.2861 13.0788 51.2005 13.0807 51.0441 13.0807H50.7501V12.431H51.0373C51.172 12.431 51.2546 12.4328 51.3235 12.4727C51.3727 12.5011 51.3922 12.5447 51.3922 12.6017C51.3922 12.6699 51.3629 12.7155 51.2861 12.7459V12.7496C51.3727 12.7687 51.4287 12.8114 51.4287 12.9033C51.4287 12.9658 51.4052 13.0067 51.3569 13.0352Z" fill="#939598"/>
<path d="M52.0171 12.8796C51.9576 12.8745 51.8979 12.872 51.8381 12.8719C51.7367 12.8719 51.7013 12.8918 51.7013 12.9364C51.7013 12.9781 51.7309 13.0009 51.8085 13.0009C51.8734 13.0009 51.9511 12.9868 52.0171 12.9724V12.8796ZM52.0466 13.0806L52.0426 13.0521C51.958 13.0721 51.8597 13.0939 51.7732 13.0939C51.7199 13.0939 51.663 13.0871 51.6226 13.0587C51.5853 13.0332 51.5676 12.9914 51.5676 12.9429C51.5676 12.889 51.5921 12.8387 51.6512 12.8131C51.7033 12.7894 51.7731 12.7875 51.8371 12.7875C51.8892 12.7875 51.959 12.7903 52.0171 12.7943V12.7856C52.0171 12.7106 51.9658 12.686 51.8262 12.686C51.7721 12.686 51.7062 12.6887 51.6433 12.6945V12.5978C51.7132 12.5922 51.7918 12.5883 51.8568 12.5883C51.9432 12.5883 52.0328 12.595 52.0879 12.6329C52.145 12.6718 52.1558 12.7259 52.1558 12.797V13.0806H52.0466Z" fill="#939598"/>
<path d="M52.8042 13.0806V12.816C52.8042 12.7287 52.7581 12.6974 52.6753 12.6974C52.6145 12.6974 52.5378 12.7126 52.4728 12.7277V13.0806H52.3341V12.6015H52.4471L52.4522 12.6319C52.5396 12.6102 52.6371 12.5884 52.7177 12.5884C52.7787 12.5884 52.8407 12.5968 52.8879 12.6376C52.9272 12.6719 52.942 12.7192 52.942 12.7875V13.0806H52.8042Z" fill="#939598"/>
<path d="M53.3337 13.0939C53.2698 13.0939 53.1998 13.0853 53.1488 13.0437C53.0878 12.9961 53.0701 12.9213 53.0701 12.8406C53.0701 12.7647 53.0958 12.6821 53.1714 12.6358C53.2334 12.5968 53.3101 12.5884 53.3898 12.5884C53.4469 12.5884 53.5028 12.5922 53.5648 12.5977V12.7002C53.5146 12.6956 53.4546 12.6917 53.4065 12.6917C53.2746 12.6917 53.2128 12.7316 53.2128 12.8416C53.2128 12.945 53.2589 12.9895 53.3671 12.9895C53.43 12.9895 53.5039 12.9782 53.5757 12.9649V13.0634C53.4979 13.0787 53.4133 13.0939 53.3337 13.0939Z" fill="#939598"/>
<path d="M53.9853 12.6889C53.8535 12.6889 53.7954 12.7286 53.7954 12.8378C53.7954 12.9468 53.8525 12.9934 53.9853 12.9934C54.1161 12.9934 54.173 12.9544 54.173 12.8453C54.173 12.7363 54.1171 12.6889 53.9853 12.6889ZM54.2233 13.0437C54.1623 13.0833 54.0826 13.0939 53.9853 13.0939C53.8859 13.0939 53.8063 13.0824 53.7464 13.0437C53.6774 13 53.6528 12.9279 53.6528 12.8416C53.6528 12.7552 53.6774 12.6822 53.7463 12.6386C53.8063 12.5997 53.8859 12.5884 53.9852 12.5884C54.0837 12.5884 54.1623 12.5996 54.2233 12.6386C54.292 12.6822 54.3157 12.7552 54.3157 12.8406C54.3157 12.927 54.2912 13 54.2233 13.0437Z" fill="#939598"/>
<path d="M55.1163 13.0939C55.0328 13.0939 54.9423 13.0806 54.8745 13.0265C54.7938 12.9619 54.7692 12.8624 54.7692 12.7552C54.7692 12.6595 54.8007 12.5457 54.9059 12.4793C54.9875 12.4281 55.0889 12.4177 55.1911 12.4177C55.2659 12.4177 55.3426 12.4224 55.4263 12.4289V12.5457C55.35 12.5394 55.2736 12.5359 55.197 12.5352C55.0052 12.5352 54.9236 12.6055 54.9236 12.7552C54.9236 12.908 54.9994 12.9763 55.141 12.9763C55.2334 12.9763 55.3368 12.9583 55.4409 12.9373V13.0531C55.3366 13.073 55.2273 13.0939 55.1163 13.0939Z" fill="#939598"/>
<path d="M55.8485 12.6737C55.7333 12.6737 55.6891 12.7136 55.6802 12.7866H56.0147C56.0107 12.7089 55.9634 12.6737 55.8485 12.6737ZM55.8277 13.0939C55.7462 13.0939 55.6724 13.0844 55.6173 13.0407C55.5583 12.9934 55.5376 12.9222 55.5376 12.8406C55.5376 12.7675 55.5623 12.686 55.6311 12.6386C55.692 12.5968 55.7698 12.5884 55.8485 12.5884C55.9192 12.5884 56.0029 12.5959 56.0638 12.6367C56.1436 12.6908 56.1504 12.7743 56.1512 12.8728H55.6793C55.6822 12.9459 55.7225 12.9934 55.8622 12.9934C55.9487 12.9934 56.0452 12.9811 56.1268 12.9687V13.0625C56.0313 13.0778 55.9271 13.0939 55.8277 13.0939Z" fill="#939598"/>
<path d="M56.7683 13.0806V12.816C56.7683 12.7287 56.7221 12.6974 56.6395 12.6974C56.5785 12.6974 56.5018 12.7126 56.4369 12.7277V13.0806H56.2982V12.6015H56.4112L56.4162 12.6319C56.5036 12.6102 56.6012 12.5884 56.6818 12.5884C56.7428 12.5884 56.8048 12.5968 56.852 12.6376C56.8912 12.6719 56.906 12.7192 56.906 12.7875V13.0806H56.7683Z" fill="#939598"/>
<path d="M57.3008 13.0939C57.2339 13.0939 57.1729 13.0759 57.1395 13.0256C57.115 12.9914 57.1031 12.945 57.1031 12.8805V12.7011H57.0028V12.6017H57.103L57.1179 12.4565H57.2407V12.6017H57.4365V12.7011H57.2407V12.8549C57.2407 12.892 57.2437 12.9232 57.2545 12.9459C57.2693 12.9782 57.3017 12.9905 57.345 12.9905C57.3774 12.9905 57.4168 12.9857 57.4443 12.9811V13.0768C57.3991 13.0854 57.3469 13.0939 57.3008 13.0939Z" fill="#939598"/>
<path d="M57.5717 13.0806V12.6015H57.6848L57.6899 12.6319C57.7813 12.6073 57.8492 12.5884 57.9357 12.5884C57.9396 12.5884 57.9455 12.5884 57.9533 12.5893V12.7031C57.9376 12.7022 57.919 12.7022 57.9052 12.7022C57.8373 12.7022 57.7862 12.7098 57.7104 12.727V13.0806H57.5717Z" fill="#939598"/>
<path d="M58.4575 12.8796C58.398 12.8745 58.3382 12.872 58.2785 12.8719C58.1772 12.8719 58.1418 12.8918 58.1418 12.9364C58.1418 12.9781 58.1713 13.0009 58.249 13.0009C58.3139 13.0009 58.3916 12.9868 58.4576 12.9724L58.4575 12.8796ZM58.487 13.0806L58.4831 13.0521C58.3985 13.0721 58.3001 13.0939 58.2136 13.0939C58.1604 13.0939 58.1034 13.0871 58.0631 13.0587C58.0258 13.0332 58.008 12.9914 58.008 12.9429C58.008 12.889 58.0327 12.8387 58.0917 12.8131C58.1438 12.7894 58.2136 12.7875 58.2775 12.7875C58.3296 12.7875 58.3994 12.7903 58.4575 12.7943V12.7856C58.4575 12.7106 58.4063 12.686 58.2667 12.686C58.2126 12.686 58.1467 12.6887 58.0837 12.6945V12.5978C58.1536 12.5922 58.2323 12.5883 58.2972 12.5883C58.3837 12.5883 58.4732 12.595 58.5283 12.6329C58.5854 12.6718 58.5962 12.7259 58.5962 12.797V13.0806H58.487Z" fill="#939598"/>
<path d="M58.7746 12.3997H58.9133V13.0807H58.7746V12.3997Z" fill="#939598"/>
</g>
<g clip-path="url(#clip1_232_5)">
<path opacity="0.07" d="M91.8861 0.314514H66.6327C65.2911 0.314514 64.2652 1.34043 64.2652 2.68201V16.887C64.2652 18.2286 65.3701 19.2545 66.6327 19.2545H91.8861C93.2276 19.2545 94.2536 18.2286 94.2536 16.887V2.68201C94.2536 1.34043 93.1487 0.314514 91.8861 0.314514Z" fill="#141F36"/>
<path d="M91.886 1.1037C92.7541 1.1037 93.4644 1.81395 93.4644 2.68203V16.887C93.4644 17.7551 92.7541 18.4654 91.886 18.4654H66.6327C65.7646 18.4654 65.0544 17.7551 65.0544 16.887V2.68203C65.0544 1.81395 65.7646 1.1037 66.6327 1.1037H91.886Z" fill="white"/>
<path d="M86.5986 8.28512H86.3619C86.0462 9.07429 85.8095 9.46887 85.5727 10.6526H87.0721C86.8354 9.46887 86.8354 8.91645 86.5986 8.28512ZM88.8872 12.9412H87.5456C87.4667 12.9412 87.4667 12.9412 87.3878 12.8623L87.23 12.152L87.1511 11.9942H85.2571C85.1781 11.9942 85.0992 11.9942 85.0992 12.152L84.8625 12.8623C84.8625 12.9412 84.7836 12.9412 84.7836 12.9412H83.1263L83.2841 12.5466L85.5727 7.18029C85.5727 6.7857 85.8095 6.62787 86.2041 6.62787H87.3878C87.4667 6.62787 87.5456 6.62787 87.5456 6.7857L88.6505 11.9153C88.7294 12.231 88.8083 12.4677 88.8083 12.7834C88.8872 12.8623 88.8872 12.8623 88.8872 12.9412ZM78.3124 12.7045L78.6281 11.284C78.707 11.284 78.7859 11.3629 78.7859 11.3629C79.3383 11.5996 79.8907 11.7575 80.4431 11.6785C80.601 11.6785 80.8377 11.5996 80.9956 11.5207C81.3901 11.3629 81.3901 10.9683 81.0745 10.6526C80.9166 10.4948 80.6799 10.4159 80.4431 10.258C80.1275 10.1002 79.8118 9.94237 79.5751 9.70562C78.6281 8.91645 78.9437 7.81162 79.4961 7.2592C79.9696 6.94354 80.2064 6.62787 80.8377 6.62787C81.7847 6.62787 82.8106 6.62787 83.2841 6.7857H83.3631C83.2841 7.2592 83.2052 7.65378 83.0474 8.12729C82.6528 7.96945 82.2582 7.81162 81.8636 7.81162C81.6269 7.81162 81.3901 7.81162 81.1534 7.89054C80.9956 7.89054 80.9166 7.96945 80.8377 8.04837C80.6799 8.2062 80.6799 8.44295 80.8377 8.60079L81.2323 8.91645C81.548 9.07429 81.8636 9.23212 82.1004 9.38995C82.495 9.6267 82.8896 10.0213 82.9685 10.4948C83.1263 11.205 82.8896 11.8364 82.2582 12.3099C81.8636 12.6255 81.7058 12.7834 81.1534 12.7834C80.0486 12.7834 79.1805 12.8623 78.4702 12.6255C78.3913 12.7834 78.3913 12.7834 78.3124 12.7045ZM75.5503 12.9412C75.6292 12.3888 75.6292 12.3888 75.7081 12.152C76.1027 10.4159 76.4973 8.60079 76.813 6.86462C76.8919 6.70679 76.8919 6.62787 77.0497 6.62787H78.4702C78.3124 7.57487 78.1546 8.28512 77.9178 9.1532C77.6811 10.337 77.4443 11.5207 77.1286 12.7045C77.1286 12.8623 77.0497 12.8623 76.8919 12.8623M68.2111 6.7857C68.2111 6.70679 68.3689 6.62787 68.4478 6.62787H71.131C71.5256 6.62787 71.8412 6.86462 71.9201 7.2592L72.6304 10.7315C72.6304 10.8105 72.6304 10.8105 72.7093 10.8894C72.7093 10.8105 72.7882 10.8105 72.7882 10.8105L74.4455 6.7857C74.3666 6.70679 74.4455 6.62787 74.5244 6.62787H76.1816C76.1816 6.70679 76.1816 6.70679 76.1027 6.7857L73.6563 12.5466C73.5774 12.7045 73.5774 12.7834 73.4985 12.8623C73.4196 12.9412 73.2617 12.8623 73.1039 12.8623H71.9201C71.8412 12.8623 71.7623 12.8623 71.7623 12.7045L70.4996 7.81162C70.3418 7.65379 70.1051 7.41704 69.7894 7.33812C69.3159 7.10137 68.4478 6.94354 68.29 6.94354L68.2111 6.7857Z" fill="#142688"/>
</g>
<g clip-path="url(#clip2_232_5)">
<path opacity="0.07" d="M125.886 0.314514H100.633C99.2911 0.314514 98.2652 1.34043 98.2652 2.68201V16.887C98.2652 18.2286 99.3701 19.2545 100.633 19.2545H125.886C127.228 19.2545 128.254 18.2286 128.254 16.887V2.68201C128.254 1.34043 127.149 0.314514 125.886 0.314514Z" fill="#141F36"/>
<path d="M125.886 1.1037C126.754 1.1037 127.464 1.81395 127.464 2.68203V16.887C127.464 17.7551 126.754 18.4654 125.886 18.4654H100.633C99.7646 18.4654 99.0544 17.7551 99.0544 16.887V2.68203C99.0544 1.81395 99.7646 1.1037 100.633 1.1037H125.886Z" fill="white"/>
<path d="M110.103 15.3087C113.154 15.3087 115.627 12.8355 115.627 9.78454C115.627 6.73363 113.154 4.26038 110.103 4.26038C107.052 4.26038 104.579 6.73363 104.579 9.78454C104.579 12.8355 107.052 15.3087 110.103 15.3087Z" fill="#EB001B"/>
<path d="M116.416 15.3087C119.467 15.3087 121.94 12.8355 121.94 9.78454C121.94 6.73363 119.467 4.26038 116.416 4.26038C113.365 4.26038 110.892 6.73363 110.892 9.78454C110.892 12.8355 113.365 15.3087 116.416 15.3087Z" fill="#F79E1B"/>
<path d="M115.627 9.7845C115.627 7.8905 114.68 6.23325 113.259 5.28625C111.839 6.31217 110.892 7.96942 110.892 9.7845C110.892 11.5996 111.839 13.3358 113.259 14.2828C114.68 13.3358 115.627 11.6785 115.627 9.7845Z" fill="#FF5F00"/>
</g>
<g clip-path="url(#clip3_232_5)">
<path opacity="0.07" d="M159.886 0.314514H134.633C133.291 0.314514 132.265 1.34043 132.265 2.68201V16.887C132.265 18.2286 133.37 19.2545 134.633 19.2545H159.886C161.228 19.2545 162.254 18.2286 162.254 16.887V2.68201C162.254 1.34043 161.149 0.314514 159.886 0.314514Z" fill="#141F36"/>
<path d="M159.886 1.1037C160.754 1.1037 161.464 1.81395 161.464 2.68203V16.887C161.464 17.7551 160.754 18.4654 159.886 18.4654H134.633C133.765 18.4654 133.054 17.7551 133.054 16.887V2.68203C133.054 1.81395 133.765 1.1037 134.633 1.1037H159.886Z" fill="white"/>
<path d="M142.761 12.5466C142.288 13.0201 141.656 13.2568 140.946 13.2568C140.473 13.2568 139.999 13.099 139.683 12.8622L138.736 14.3617C139.368 14.8352 140.157 15.0719 140.946 15.0719C142.13 15.0719 143.235 14.5984 144.024 13.8092L142.761 12.5466ZM141.104 6.46999C138.736 6.46999 136.763 8.36399 136.763 10.7315C136.763 11.5996 137 12.4677 137.474 13.1779L145.208 9.8634C144.734 7.89049 143.077 6.46999 141.104 6.46999ZM138.5 11.0472V10.7315C138.5 9.31099 139.683 8.20615 141.025 8.20615C141.814 8.20615 142.445 8.60074 142.919 9.07424L138.5 11.0472ZM147.654 4.49707V12.7833L149.074 13.4147L148.364 15.0719L146.944 14.4406C146.628 14.2827 146.391 14.1249 146.233 13.8882C146.076 13.6514 145.997 13.3357 145.997 12.8622V4.49707H147.654ZM152.784 8.36399C153.02 8.28507 153.336 8.20615 153.573 8.20615C154.756 8.20615 155.782 9.07424 156.019 10.258L157.755 9.94232C157.361 7.9694 155.625 6.46999 153.573 6.46999C153.099 6.46999 152.626 6.5489 152.231 6.70674L152.784 8.36399ZM150.732 13.9671L151.915 12.6255C151.363 12.152 151.047 11.5207 151.047 10.7315C151.047 9.94232 151.363 9.31099 151.915 8.83749L150.732 7.4959C149.864 8.28507 149.311 9.46882 149.311 10.7315C149.311 12.0731 149.864 13.1779 150.732 13.9671ZM156.019 11.2839C155.782 12.4677 154.756 13.3357 153.573 13.3357C153.257 13.3357 153.02 13.2568 152.784 13.1779L152.231 14.8352C152.626 14.993 153.099 15.0719 153.573 15.0719C155.625 15.0719 157.361 13.5725 157.755 11.5996L156.019 11.2839Z" fill="#141F36"/>
</g>
<g clip-path="url(#clip4_232_5)">
<path opacity="0.07" d="M193.886 0.314514H168.633C167.291 0.314514 166.265 1.34043 166.265 2.68201V16.887C166.265 18.2286 167.37 19.2545 168.633 19.2545H193.886C195.228 19.2545 196.254 18.2286 196.254 16.887V2.68201C196.254 1.34043 195.149 0.314514 193.886 0.314514Z" fill="#141F36"/>
<path d="M193.886 1.1037C194.754 1.1037 195.464 1.81395 195.464 2.68203V16.887C195.464 17.7551 194.754 18.4654 193.886 18.4654H168.633C167.765 18.4654 167.054 17.7551 167.054 16.887V2.68203C167.054 1.81395 167.765 1.1037 168.633 1.1037H193.886Z" fill="#006FCF"/>
<path d="M173.345 8.4177L173.956 9.89818H172.739L173.345 8.4177ZM186.031 8.47925H183.681V9.13189H185.993V10.1097H183.686V10.8373H186.035V11.4205L187.675 9.6488L186.035 7.80215L186.031 8.47925ZM174.933 6.6326H178.085L178.785 8.15964L179.434 6.62787H187.618L188.468 7.56698L189.348 6.62787H193.107L190.33 9.66774L193.079 12.6887H189.264L188.413 11.7496L187.525 12.6887H174.181L173.791 11.7496H172.899L172.508 12.6887H169.422L172.015 6.62787H174.722L174.933 6.6326ZM181.769 7.48333H180.002L178.819 10.2738L177.536 7.48333H175.783V11.2792L174.157 7.48333H172.584L170.704 11.8332H171.931L172.321 10.8941H174.37L174.76 11.8332H176.906V8.72784L178.288 11.8379H179.227L180.6 8.73731V11.8387H181.751L181.77 7.48254L181.769 7.48333ZM189.14 9.66774L191.137 7.48333H189.7L188.436 8.84543L187.214 7.48333H182.563V11.8379H187.148L188.422 10.4664L189.644 11.8379H191.123L189.14 9.66774Z" fill="white"/>
</g>
<g clip-path="url(#clip5_232_5)">
<path opacity="0.07" d="M227.886 0.314514H202.633C201.291 0.314514 200.265 1.34043 200.265 2.68201V16.887C200.265 18.2286 201.37 19.2545 202.633 19.2545H227.886C229.228 19.2545 230.254 18.2286 230.254 16.887V2.68201C230.254 1.34043 229.149 0.314514 227.886 0.314514Z" fill="#141F36"/>
<path d="M227.886 1.1037C228.754 1.1037 229.464 1.81395 229.464 2.68203V16.887C229.464 17.7551 228.754 18.4654 227.886 18.4654H202.633C201.765 18.4654 201.054 17.7551 201.054 16.887V2.68203C201.054 1.81395 201.765 1.1037 202.633 1.1037H227.886Z" fill="white"/>
<path d="M209.735 9.78454V12.7045C209.735 12.9412 209.577 12.9412 209.341 12.8623C207.841 12.231 206.973 10.258 207.526 8.60079C207.841 7.73271 208.473 7.02246 209.341 6.70679C209.656 6.54896 209.735 6.62788 209.735 6.86463V9.78454ZM211.314 9.78454V6.86463C211.314 6.62788 211.314 6.62788 211.55 6.70679C213.208 7.33813 214.076 9.31104 213.444 10.9683C213.129 11.8364 212.497 12.5466 211.629 12.8623C211.314 13.0201 211.314 12.9412 211.314 12.7045V9.78454ZM216.996 4.26038H210.524C213.523 4.26038 215.891 6.70679 215.891 9.78454C215.891 12.8623 213.523 15.3087 210.524 15.3087H216.996C219.994 15.3087 222.362 12.8623 222.362 9.78454C222.362 6.70679 219.994 4.26038 216.996 4.26038Z" fill="#3086C8"/>
</g>
<g clip-path="url(#clip6_232_5)">
<path opacity="0.07" d="M261.886 0.314514H236.633C235.291 0.314514 234.265 1.34043 234.265 2.68201V16.887C234.265 18.2286 235.37 19.2545 236.633 19.2545H261.886C263.228 19.2545 264.254 18.2286 264.254 16.887V2.68201C264.254 1.34043 263.149 0.314514 261.886 0.314514Z" fill="#141F36"/>
<path d="M261.886 1.1037C262.754 1.1037 263.464 1.81395 263.464 2.68203V16.887C263.464 17.7551 262.754 18.4654 261.886 18.4654H236.633C235.765 18.4654 235.054 17.7551 235.054 16.887V2.68203C235.054 1.81395 235.765 1.1037 236.633 1.1037H261.886Z" fill="white"/>
<path d="M237.083 5.96494H235.844V10.3054H237.083C237.738 10.3054 238.211 10.1475 238.629 9.80818C239.127 9.39781 239.418 8.78226 239.418 8.14304C239.411 6.8567 238.456 5.96494 237.083 5.96494ZM238.077 9.23209C237.809 9.46884 237.469 9.57932 236.917 9.57932H236.688V6.70676H236.917C237.461 6.70676 237.793 6.80146 238.077 7.05399C238.369 7.31441 238.543 7.71689 238.543 8.13515C238.543 8.55341 238.369 8.97166 238.077 9.23209ZM239.805 5.96494H240.65V10.3054H239.805V5.96494ZM242.717 7.63008C242.212 7.44068 242.062 7.31441 242.062 7.08556C242.062 6.80935 242.331 6.60416 242.694 6.60416C242.946 6.60416 243.159 6.70676 243.372 6.95929L243.814 6.3832C243.451 6.06753 243.017 5.90181 242.536 5.90181C241.77 5.90181 241.178 6.43844 241.178 7.14869C241.178 7.74846 241.455 8.05623 242.244 8.34033C242.575 8.45871 242.741 8.53762 242.828 8.58497C242.993 8.69546 243.08 8.85329 243.08 9.0348C243.08 9.38992 242.804 9.65035 242.425 9.65035C242.023 9.65035 241.699 9.44516 241.502 9.07426L240.957 9.603C241.344 10.1791 241.818 10.4316 242.457 10.4316C243.333 10.4316 243.956 9.84764 243.956 9.00323C243.972 8.30087 243.68 7.98521 242.717 7.63008ZM244.232 8.14304C244.232 9.42149 245.235 10.4079 246.521 10.4079C246.884 10.4079 247.2 10.3369 247.578 10.1554V9.16106C247.239 9.50041 246.939 9.63456 246.56 9.63456C245.708 9.63456 245.1 9.01901 245.1 8.13515C245.1 7.29863 245.724 6.64362 246.521 6.64362C246.923 6.64362 247.231 6.78567 247.578 7.13291V6.13856C247.208 5.94916 246.9 5.87024 246.537 5.87024C245.266 5.87024 244.232 6.88037 244.232 8.14304ZM254.302 8.88486L253.142 5.96494H252.219L254.058 10.4158H254.515L256.386 5.96494H255.47L254.302 8.88486ZM256.772 10.3054H259.171V9.57143H257.617V8.40346H259.116V7.66954H257.617V6.70676H259.171V5.96494H256.772V10.3054ZM262.525 7.25128C262.525 6.43844 261.965 5.97283 260.986 5.97283H259.732V10.3132H260.576V8.56919H260.687L261.854 10.3132H262.896L261.531 8.48238C262.17 8.34822 262.525 7.91418 262.525 7.25128ZM260.821 7.96942H260.576V6.65151H260.836C261.365 6.65151 261.649 6.87248 261.649 7.29863C261.649 7.73267 261.365 7.96942 260.821 7.96942Z" fill="#231F20"/>
<path d="M250.175 10.4632C250.788 10.4632 251.377 10.2195 251.81 9.78572C252.244 9.35194 252.488 8.7636 252.488 8.15014C252.488 7.53669 252.244 6.94835 251.81 6.51457C251.377 6.08079 250.788 5.8371 250.175 5.8371C249.561 5.8371 248.973 6.08079 248.539 6.51457C248.105 6.94835 247.862 7.53669 247.862 8.15014C247.862 8.7636 248.105 9.35194 248.539 9.78572C248.973 10.2195 249.561 10.4632 250.175 10.4632Z" fill="url(#paint0_linear_232_5)"/>
<path opacity="0.65" d="M250.175 10.4632C250.788 10.4632 251.377 10.2195 251.81 9.78572C252.244 9.35194 252.488 8.7636 252.488 8.15014C252.488 7.53669 252.244 6.94835 251.81 6.51457C251.377 6.08079 250.788 5.8371 250.175 5.8371C249.561 5.8371 248.973 6.08079 248.539 6.51457C248.105 6.94835 247.862 7.53669 247.862 8.15014C247.862 8.7636 248.105 9.35194 248.539 9.78572C248.973 10.2195 249.561 10.4632 250.175 10.4632Z" fill="url(#paint1_linear_232_5)"/>
<path d="M263.125 6.238C263.125 6.15909 263.07 6.11963 262.983 6.11963H262.857V6.49843H262.951V6.34849L263.062 6.49843H263.172L263.046 6.3406C263.094 6.3327 263.125 6.29325 263.125 6.238ZM262.967 6.29325H262.951V6.19065H262.967C263.015 6.19065 263.038 6.20644 263.038 6.238C263.038 6.27746 263.015 6.29325 262.967 6.29325Z" fill="#231F20"/>
<path d="M262.999 5.9776C262.817 5.9776 262.667 6.12754 262.667 6.30905C262.667 6.49056 262.817 6.6405 262.999 6.6405C263.18 6.6405 263.33 6.49056 263.33 6.30905C263.33 6.12754 263.18 5.9776 262.999 5.9776ZM262.999 6.58526C262.857 6.58526 262.73 6.46688 262.73 6.30905C262.73 6.15911 262.849 6.03284 262.999 6.03284C263.141 6.03284 263.259 6.15911 263.259 6.30905C263.259 6.45899 263.141 6.58526 262.999 6.58526Z" fill="#231F20"/>
<path d="M263.464 10.561C263.464 10.561 255.644 15.9976 241.349 18.4653H261.885C262.302 18.4653 262.701 18.3008 262.997 18.0075C263.293 17.7142 263.46 17.316 263.464 16.8996L263.483 14.5163L263.464 10.561Z" fill="#F48120"/>
</g>
<g clip-path="url(#clip7_232_5)">
<path d="M296.438 19.2269H270.08C269.599 19.2254 269.139 19.0337 268.798 18.6936C268.458 18.3536 268.267 17.8927 268.265 17.4118V2.10195C268.265 1.10365 269.082 0.286865 270.08 0.286865H296.438C297.437 0.286865 298.254 1.10365 298.254 2.10195V17.4118C298.254 18.4101 297.437 19.2269 296.438 19.2269Z" fill="white"/>
<path opacity="0.25" d="M296.331 19.2269H270.188C269.127 19.2269 268.265 18.3769 268.265 17.3329V2.18087C268.265 1.1368 269.127 0.286865 270.188 0.286865H296.331C297.392 0.286865 298.254 1.1368 298.254 2.18087V17.3329C298.254 18.3769 297.392 19.2269 296.331 19.2269ZM270.188 1.04447C269.552 1.04447 269.034 1.55427 269.034 2.18087V17.3329C269.034 17.9595 269.552 18.4693 270.188 18.4693H296.331C296.967 18.4693 297.485 17.9595 297.485 17.3329V2.18087C297.485 1.55427 296.967 1.04447 296.331 1.04447H270.188Z" fill="#A7A8AB"/>
<path d="M274.641 4.21692H275.193V9.18709H274.641V4.21692ZM273.197 4.21692H273.749V9.18709H273.197V4.21692ZM278.923 4.21692H280.423V9.18709H278.923V4.21692ZM286.59 4.21692H287.339V9.18709H286.59V4.21692ZM288.424 4.21692H289.173V9.18709H288.424V4.21692ZM291.426 4.21692H292.389V9.18709H291.426V4.21692ZM290.341 4.21692H290.652V9.18709H290.341V4.21692ZM285.299 4.21692H285.61V9.18709H285.299V4.21692ZM284.632 4.21692H284.943V9.18709H284.632V4.21692ZM282.465 4.21692H282.776V9.18709H282.465V4.21692ZM277.485 4.21692H277.797V9.18709H277.485V4.21692ZM276.567 4.21692H277.146V9.18709H276.567V4.21692ZM273.197 15.5454V10.4332H275.115C275.506 10.4332 275.818 10.4845 276.055 10.5879C276.291 10.6912 276.475 10.8507 276.608 11.0661C276.742 11.28 276.81 11.5049 276.81 11.7408C276.81 11.9586 276.75 12.1646 276.632 12.3572C276.502 12.5612 276.316 12.7236 276.096 12.8251C276.405 12.9159 276.644 13.0706 276.809 13.2892C276.975 13.507 277.059 13.765 277.059 14.0626C277.059 14.3033 277.008 14.5258 276.907 14.731C276.821 14.917 276.693 15.08 276.532 15.2069C276.383 15.3173 276.196 15.4018 275.972 15.4594C275.702 15.5215 275.424 15.5504 275.147 15.5454H273.197ZM273.875 12.5821H274.981C275.281 12.5821 275.496 12.5616 275.626 12.5229C275.78 12.4836 275.917 12.3936 276.015 12.2672C276.106 12.1361 276.152 11.9791 276.146 11.8198C276.15 11.6616 276.107 11.5058 276.024 11.3715C275.942 11.2421 275.826 11.1521 275.675 11.1048C275.523 11.0574 275.264 11.0337 274.897 11.0337H273.875V12.5821ZM273.875 14.9456H275.149C275.368 14.9456 275.522 14.937 275.611 14.9204C275.765 14.8928 275.896 14.8462 276.001 14.7815C276.111 14.7105 276.2 14.612 276.259 14.4958C276.327 14.3711 276.361 14.2267 276.361 14.0641C276.361 13.8724 276.312 13.7074 276.213 13.5654C276.114 13.4234 275.971 13.3186 275.806 13.2679C275.633 13.2111 275.384 13.1819 275.058 13.1819H273.875V14.9456ZM277.674 13.6924C277.674 13.0082 277.864 12.5016 278.246 12.1717C278.564 11.8979 278.953 11.7614 279.411 11.7614C279.919 11.7614 280.336 11.9279 280.659 12.2609C280.982 12.5931 281.144 13.0532 281.144 13.6404C281.144 14.1162 281.073 14.4903 280.93 14.7626C280.79 15.0322 280.572 15.2535 280.305 15.3978C280.031 15.5489 279.724 15.6267 279.411 15.6235C278.893 15.6235 278.474 15.4578 278.153 15.1264C277.833 14.7941 277.674 14.3159 277.674 13.6924ZM278.316 13.694C278.316 14.1675 278.419 14.5226 278.627 14.757C278.835 14.993 279.096 15.1106 279.411 15.1106C279.723 15.1106 279.983 14.993 280.191 14.7562C280.398 14.5195 280.502 14.1588 280.502 13.6743C280.502 13.2174 280.397 12.8709 280.189 12.6365C280.094 12.5236 279.974 12.4333 279.84 12.3721C279.705 12.311 279.559 12.2805 279.411 12.283C279.096 12.283 278.835 12.3998 278.627 12.6342C278.42 12.8686 278.316 13.2213 278.316 13.694ZM281.866 15.5454V10.4332H282.494V15.5454H281.866ZM285.994 14.3459L286.643 14.4319C286.542 14.8091 286.353 15.1027 286.077 15.311C285.801 15.5194 285.449 15.6243 285.018 15.6243C284.478 15.6243 284.05 15.4578 283.733 15.1248C283.416 14.7925 283.258 14.3254 283.258 13.724C283.258 13.1029 283.417 12.62 283.738 12.2767C284.058 11.9326 284.473 11.7614 284.984 11.7614C285.478 11.7614 285.881 11.9294 286.194 12.2656C286.508 12.6026 286.665 13.0761 286.665 13.6861L286.662 13.8526H283.902C283.925 14.2583 284.04 14.57 284.247 14.7854C284.345 14.8907 284.465 14.9739 284.598 15.0297C284.732 15.0854 284.875 15.1124 285.019 15.109C285.249 15.109 285.445 15.0482 285.607 14.9267C285.771 14.8052 285.898 14.611 285.994 14.3451V14.3459ZM283.937 13.3389H286.001C285.973 13.0272 285.894 12.7936 285.764 12.6381C285.672 12.5217 285.554 12.4283 285.419 12.3653C285.284 12.3023 285.137 12.2714 284.988 12.2751C284.7 12.2751 284.459 12.3714 284.262 12.5639C284.068 12.7565 283.959 13.0153 283.937 13.3389ZM288.802 14.9851L288.888 15.5399C288.733 15.5747 288.574 15.5934 288.415 15.5959C288.188 15.5959 288.012 15.5604 287.886 15.4878C287.761 15.4152 287.672 15.3213 287.621 15.2037C287.57 15.0861 287.545 14.8383 287.545 14.4611V12.3264H287.081V11.8411H287.545V10.9248L288.173 10.5476V11.8411H288.801V12.3264H288.173V14.4974C288.173 14.6773 288.184 14.7925 288.206 14.8438C288.227 14.8952 288.265 14.9382 288.313 14.9662C288.379 14.9998 288.453 15.0154 288.527 15.0111L288.801 14.9859L288.802 14.9851ZM289.186 13.6924C289.186 13.0082 289.376 12.5016 289.758 12.1717C290.076 11.8979 290.465 11.7614 290.923 11.7614C291.431 11.7614 291.848 11.9279 292.171 12.2609C292.494 12.5931 292.656 13.0532 292.656 13.6404C292.656 14.1162 292.585 14.4903 292.442 14.7626C292.302 15.0322 292.084 15.2535 291.817 15.3978C291.544 15.5489 291.236 15.6267 290.924 15.6235C290.405 15.6235 289.986 15.4578 289.666 15.1264C289.345 14.7941 289.186 14.3159 289.186 13.6924ZM289.828 13.694C289.828 14.1675 289.932 14.5226 290.139 14.757C290.348 14.993 290.608 15.1106 290.924 15.1106C291.236 15.1106 291.495 14.993 291.703 14.7562C291.91 14.5195 292.014 14.1588 292.014 13.6743C292.014 13.2174 291.909 12.8709 291.701 12.6365C291.606 12.5236 291.487 12.4333 291.352 12.3721C291.218 12.311 291.071 12.2805 290.924 12.283C290.608 12.283 290.348 12.3998 290.139 12.6342C289.933 12.8686 289.828 13.2213 289.828 13.694Z" fill="#221F1F"/>
</g>
<defs>
<linearGradient id="paint0_linear_232_5" x1="251.356" y1="10.0015" x2="249.758" y2="7.49908" gradientUnits="userSpaceOnUse">
<stop stop-color="#F89F20"/>
<stop offset="0.25" stop-color="#F79A20"/>
<stop offset="0.533" stop-color="#F68D20"/>
<stop offset="0.62" stop-color="#F58720"/>
<stop offset="0.723" stop-color="#F48120"/>
<stop offset="1" stop-color="#F37521"/>
</linearGradient>
<linearGradient id="paint1_linear_232_5" x1="251.104" y1="9.9676" x2="248.769" y2="5.40148" gradientUnits="userSpaceOnUse">
<stop stop-color="#F58720"/>
<stop offset="0.359" stop-color="#E16F27"/>
<stop offset="0.703" stop-color="#D4602C"/>
<stop offset="0.982" stop-color="#D05B2E"/>
</linearGradient>
<clipPath id="clip0_232_5">
<rect width="29.9883" height="18.94" fill="white" transform="translate(30.2653 0.314514)"/>
</clipPath>
<clipPath id="clip1_232_5">
<rect width="29.9883" height="18.94" fill="white" transform="translate(64.2652 0.314514)"/>
</clipPath>
<clipPath id="clip2_232_5">
<rect width="29.9883" height="18.94" fill="white" transform="translate(98.2652 0.314514)"/>
</clipPath>
<clipPath id="clip3_232_5">
<rect width="29.9883" height="18.94" fill="white" transform="translate(132.265 0.314514)"/>
</clipPath>
<clipPath id="clip4_232_5">
<rect width="29.9883" height="18.94" fill="white" transform="translate(166.265 0.314514)"/>
</clipPath>
<clipPath id="clip5_232_5">
<rect width="29.9883" height="18.94" fill="white" transform="translate(200.265 0.314514)"/>
</clipPath>
<clipPath id="clip6_232_5">
<rect width="29.9883" height="18.94" fill="white" transform="translate(234.265 0.314514)"/>
</clipPath>
<clipPath id="clip7_232_5">
<rect width="29.9883" height="18.94" fill="white" transform="translate(268.265 0.314514)"/>
</clipPath>
</defs>
</svg>
