<svg width="18" height="18" viewBox="0 0 18 18" fill="none" xmlns="http://www.w3.org/2000/svg">
<g clip-path="url(#clip0_243_281)">
<path d="M16.42 0.610107C16.69 0.610107 16.92 0.710107 17.11 0.890107C17.3 1.09011 17.39 1.31011 17.39 1.59011V17.0301C17.39 17.3001 17.29 17.5301 17.11 17.7201C17.019 17.8126 16.9098 17.8852 16.7893 17.9334C16.6688 17.9815 16.5397 18.0043 16.41 18.0001H12.02V11.3001H14.27L14.58 8.65011H12.02V6.95011C12.02 6.55011 12.12 6.23011 12.3 6.02011C12.48 5.82011 12.8 5.70011 13.3 5.70011H14.67V3.35011C14.07 3.29011 13.4 3.25011 12.66 3.25011C11.65 3.25011 10.83 3.55011 10.21 4.15011C9.59 4.75011 9.28 5.59011 9.28 6.68011V8.65011H7.04V11.3001H9.28V18.0001H0.979997C0.699997 18.0001 0.479997 17.9001 0.279997 17.7201C0.187541 17.6291 0.114932 17.5199 0.0667437 17.3994C0.0185549 17.2789 -0.004171 17.1498 -3.18728e-06 17.0201V1.59011C-3.18728e-06 1.32011 0.0999968 1.09011 0.279997 0.900107C0.371033 0.807651 0.480224 0.735043 0.600696 0.686854C0.721168 0.638665 0.850312 0.61594 0.979997 0.620107H16.42V0.610107Z" fill="#141F36"/>
</g>
<defs>
<clipPath id="clip0_243_281">
<rect width="18" height="18" fill="white" transform="translate(-0.000488281)"/>
</clipPath>
</defs>
</svg>
