<svg width="13" height="12" viewBox="0 0 13 12" fill="none" xmlns="http://www.w3.org/2000/svg">
<path d="M11.2101 2.02597C10.9354 1.75118 10.6092 1.53319 10.2501 1.38447C9.89109 1.23574 9.50626 1.15919 9.11762 1.15919C8.72898 1.15919 8.34415 1.23574 7.98511 1.38447C7.62608 1.53319 7.29987 1.75118 7.02512 2.02597L6.45493 2.59599L5.88474 2.02597C5.32978 1.47117 4.57708 1.15948 3.79224 1.15948C3.00741 1.15948 2.25471 1.47117 1.69975 2.02597C1.14478 2.58077 0.833008 3.33324 0.833008 4.11785C0.833008 4.90245 1.14478 5.65493 1.69975 6.20973L2.26994 6.77975L6.45493 10.9635L10.6399 6.77975L11.2101 6.20973C11.485 5.93506 11.703 5.60895 11.8518 5.25002C12.0006 4.89109 12.0771 4.50637 12.0771 4.11785C12.0771 3.72932 12.0006 3.34461 11.8518 2.98568C11.703 2.62674 11.485 2.30063 11.2101 2.02597Z" stroke="#BB9469" stroke-width="1.28" stroke-linecap="round" stroke-linejoin="round"/>
</svg>
