<svg width="15" height="15" viewBox="0 0 15 15" fill="none" xmlns="http://www.w3.org/2000/svg">
<path d="M1.25 10C1.25 8.23225 1.25 7.34838 1.79917 6.79919C2.34835 6.25 3.23223 6.25 5 6.25H10C11.7677 6.25 12.6516 6.25 13.2008 6.79919C13.75 7.34838 13.75 8.23225 13.75 10C13.75 11.7677 13.75 12.6516 13.2008 13.2008C12.6516 13.75 11.7677 13.75 10 13.75H5C3.23223 13.75 2.34835 13.75 1.79917 13.2008C1.25 12.6516 1.25 11.7677 1.25 10Z" stroke="#1C274C"/>
<path d="M3.75 6.25V5C3.75 2.92893 5.42893 1.25 7.5 1.25C9.57106 1.25 11.25 2.92893 11.25 5V6.25" stroke="#1C274C" stroke-linecap="round"/>
</svg>
