<svg width="29" height="30" viewBox="0 0 29 30" fill="none" xmlns="http://www.w3.org/2000/svg">
<path d="M9.25728 18.9448C9.38598 19.4272 9.8679 19.7103 10.3337 19.577C10.7995 19.4438 11.0728 18.9446 10.9441 18.4621L9.25728 18.9448ZM4.23391 6.20885C3.76825 6.07504 3.28602 6.35753 3.15683 6.83981C3.02763 7.32211 3.30039 7.82156 3.76605 7.95537L4.23391 6.20885ZM24.0533 19.5015C24.5211 19.3757 24.8018 18.8809 24.6802 18.3965C24.5586 17.9121 24.081 17.6215 23.6133 17.7474L24.0533 19.5015ZM12.3974 21.7169C12.7586 23.0711 11.9657 24.4997 10.5612 24.8778L11.0014 26.632C13.3079 26.0112 14.7173 23.608 14.0842 21.2343L12.3974 21.7169ZM10.5612 24.8778C9.1475 25.2583 7.7289 24.4084 7.36466 23.0429L5.67784 23.5255C6.30798 25.8879 8.70393 27.2504 11.0014 26.632L10.5612 24.8778ZM7.36466 23.0429C7.00346 21.6887 7.79631 20.2601 9.20086 19.882L8.76069 18.1278C6.45413 18.7486 5.04466 21.1517 5.67784 23.5255L7.36466 23.0429ZM9.20086 19.882C10.6145 19.5015 12.0331 20.3513 12.3974 21.7169L14.0842 21.2343C13.4541 18.8719 11.0581 17.5095 8.76069 18.1278L9.20086 19.882ZM10.9441 18.4621L8.43313 9.04859L6.74631 9.53124L9.25728 18.9448L10.9441 18.4621ZM6.22156 6.78L4.23391 6.20885L3.76605 7.95537L5.7537 8.52653L6.22156 6.78ZM8.43313 9.04859C8.13781 7.94148 7.29126 7.08739 6.22156 6.78L5.7537 8.52653C6.25022 8.66921 6.62 9.05769 6.74631 9.53124L8.43313 9.04859ZM13.4608 22.3527L24.0533 19.5015L23.6133 17.7474L13.0206 20.5984L13.4608 22.3527Z" fill="#1C274C"/>
<path d="M11.6596 11.0493C11.0937 8.92803 10.8108 7.86738 11.291 7.03179C11.7713 6.19619 12.8272 5.91199 14.9389 5.34359L17.1788 4.74071C19.2905 4.17231 20.3464 3.8881 21.1782 4.37052C22.01 4.85295 22.2929 5.91361 22.8587 8.03493L23.459 10.2849C24.0248 12.4062 24.3077 13.4669 23.8274 14.3024C23.3472 15.1381 22.2914 15.4223 20.1796 15.9907L17.9397 16.5936C15.8281 17.162 14.7721 17.4462 13.9403 16.9638C13.1084 16.4813 12.8255 15.4206 12.2597 13.2994L11.6596 11.0493Z" stroke="#1C274C" stroke-width="1.8"/>
</svg>
