<svg width="392" height="55" viewBox="0 0 392 55" fill="none" xmlns="http://www.w3.org/2000/svg">
<rect width="392" height="55" fill="#1E1E1E"/>
<g clip-path="url(#clip0_0_1)">
<rect width="392" height="55" fill="white"/>
<rect y="-1" width="392" height="58" fill="black"/>
<g clip-path="url(#clip1_0_1)">
<path d="M81.1718 40.0191H31.9002C24.8259 40.0191 19.072 34.4364 19.072 27.5774C19.072 20.7184 24.8281 15.1357 31.9002 15.1357H81.1718C88.2461 15.1357 94 20.7163 94 27.5774C94 34.4386 88.2461 40.0191 81.1718 40.0191ZM31.9002 16.1125C25.3831 16.1125 20.0791 21.2546 20.0791 27.5774C20.0791 33.9003 25.3831 39.0423 31.9002 39.0423H81.1718C87.6889 39.0423 92.9929 33.8981 92.9929 27.5774C92.9929 21.2567 87.6889 16.1125 81.1718 16.1125H31.9002Z" fill="white"/>
<path d="M75.2613 20.6143C73.3478 20.6143 71.7969 22.1185 71.7969 23.9743C71.7969 25.8301 73.3478 27.3322 75.2613 27.3322C77.1748 27.3322 78.7257 25.828 78.7257 23.9743C78.7257 22.1206 77.1748 20.6143 75.2613 20.6143ZM75.2613 25.6977C74.2811 25.6977 73.4843 24.9272 73.4843 23.9743C73.4843 23.0214 74.2811 22.2509 75.2613 22.2509C76.2415 22.2509 77.0383 23.0214 77.0383 23.9743C77.0383 24.9272 76.2415 25.6977 75.2613 25.6977Z" fill="white"/>
<path d="M59.3738 20.6143C57.4603 20.6143 55.9094 22.1185 55.9094 23.9743C55.9094 25.8301 57.4603 27.3322 59.3738 27.3322C61.2873 27.3322 62.8382 25.828 62.8382 23.9743C62.8382 22.1206 61.2873 20.6143 59.3738 20.6143ZM59.3738 25.6977C58.3935 25.6977 57.5968 24.9272 57.5968 23.9743C57.5968 23.0214 58.3935 22.2509 59.3738 22.2509C60.354 22.2509 61.1507 23.0214 61.1507 23.9743C61.1507 24.9272 60.3562 25.6977 59.3738 25.6977Z" fill="white"/>
<path d="M71.5753 25.7906C71.356 25.8514 71.0203 25.9143 70.8927 25.9143C70.2997 25.9143 70.1721 25.7168 70.1721 25.1677V22.0638H71.5887V20.7658H70.1721V18.9316H68.5786L68.2429 20.7658H67.1329H67.0434C66.1347 20.7701 65.4499 21.3062 65.0113 22.1484L64.4563 20.7658H63.3126V27.2123H65.2664V24.408C65.2664 22.9949 66.128 22.092 67.1486 22.0638H68.2161V25.2675C68.2161 26.7761 69.0128 27.3361 70.3108 27.3361C70.98 27.3361 71.4947 27.1993 71.8013 27.0995L71.5708 25.7906H71.5753Z" fill="white"/>
<path d="M81.0913 22.8064V27.2127H79.1934V20.7661H80.346L80.7309 21.7515" fill="white"/>
<path d="M80.722 21.756C81.2994 21.107 82.0894 20.6143 83.0137 20.6143C84.596 20.6143 85.2472 21.8363 85.2472 22.9715V27.2106H83.2912V23.0258C83.2912 22.4723 82.8168 22.1727 82.302 22.1727C81.7537 22.1727 81.4023 22.4766 81.0935 22.8022" fill="white"/>
<path d="M48.2935 18.4326H50.4688L53.4565 23.9524V18.4326H55.2603V27.2147H53.2887L50.0951 21.1437V27.2147H48.2935V18.4326Z" fill="white"/>
<path d="M91.0145 15.1357V15.4505H90.5423V16.9959H90.1708V15.4505H89.7053V15.1357H91.0145Z" fill="white"/>
<path d="M91.2808 16.9959V15.1357H91.7821L92.1156 16.3556L92.4535 15.1357H92.9593V16.9959H92.6527V15.5416H92.646L92.2566 16.9959H91.9858L91.5942 15.5416H91.5852V16.9959H91.2808Z" fill="white"/>
<path d="M47.7496 34.9962L48.2017 34.3146C48.5687 34.5773 49.1193 34.8225 49.7907 34.8225C50.4621 34.8225 50.847 34.536 50.847 34.0368C50.847 33.4638 50.3368 33.3118 49.502 33.0296C48.7523 32.7735 48.0137 32.4067 48.0137 31.3757C48.0137 30.4098 48.7993 29.8823 49.8556 29.8823C50.5583 29.8823 51.0753 30.0169 51.4938 30.2557L51.1335 30.9806C50.7844 30.8048 50.3659 30.6854 49.8757 30.6854C49.2871 30.6854 48.9335 30.9003 48.9335 31.354C48.9335 31.8858 49.3431 32.0203 50.113 32.2656C50.9164 32.5174 51.7982 32.8777 51.7982 34.0194C51.7982 34.9853 51.0865 35.6235 49.8086 35.6235C48.8597 35.6235 48.1637 35.3066 47.7541 34.9962" fill="white"/>
<path d="M53.508 29.9712H56.9299V30.7417H54.4815V32.2655H56.4151V33.0187H54.4815V34.779H57.0798V35.5495H53.508V29.9712Z" fill="white"/>
<path d="M58.4719 32.7651C58.4719 31.1372 59.2753 29.8848 60.8799 29.8848C61.5983 29.8848 62.1668 30.1062 62.5652 30.5576L61.9967 31.1958C61.6543 30.8702 61.3611 30.7096 60.8934 30.7096C59.9512 30.7096 59.517 31.4563 59.517 32.8389C59.517 34.1347 59.9758 34.7924 60.9023 34.7924C61.4171 34.7924 61.7774 34.5298 62.0952 34.2042L62.6681 34.8228C62.2518 35.3003 61.7281 35.6259 60.8934 35.6259C59.2395 35.6259 58.4696 34.4039 58.4696 32.7673" fill="white"/>
<path d="M64.2571 33.4139V29.9692H65.2373V33.5659C65.2373 34.3321 65.432 34.8356 66.2668 34.8356C67.1016 34.8356 67.2985 34.3342 67.2985 33.5659V29.9692H68.2899V33.4139C68.2899 34.7966 67.7416 35.6236 66.2601 35.6236C64.7785 35.6236 64.2548 34.7966 64.2548 33.4139" fill="white"/>
<path d="M74.2945 35.5517H73.2292L72.1236 33.1858H71.215V35.5517H70.2415V29.9712H72.1191C73.2807 29.9712 74.1871 30.3749 74.1871 31.5991C74.1871 32.4326 73.6723 32.8515 73.0972 33.0512L74.2922 35.5517H74.2945ZM72.0833 32.4565C72.8129 32.4565 73.1889 32.2264 73.1889 31.5817C73.1889 30.9371 72.8062 30.7417 72.1415 30.7417H71.2172V32.4565H72.0856H72.0833Z" fill="white"/>
<path d="M75.9618 29.9712H79.3814V30.7417H76.9331V32.2655H78.8644V33.0187H76.9331V34.779H79.5291V35.5495H75.9618V29.9712Z" fill="white"/>
<path d="M81.1741 29.9712H82.6109C84.4863 29.9712 85.3882 30.9566 85.3882 32.7408C85.3882 34.525 84.4706 35.5517 82.6601 35.5517H81.1741V29.9712ZM82.5549 34.7812C83.8977 34.7812 84.3565 34.1799 84.3565 32.7408C84.3565 31.4797 83.9962 30.7417 82.6758 30.7417H82.1521V34.7812H82.5549Z" fill="white"/>
<path d="M47.9958 12.0859H46.9171V13.1321H47.9958V12.0859Z" fill="white"/>
<path d="M47.9958 10H46.9171V11.0484H47.9958V10Z" fill="white"/>
<path d="M44.8895 13.1255H43.8824V14.1478H44.8895V13.1255Z" fill="white"/>
<path d="M42.8999 15.1313H41.8839V16.1081H42.8999V15.1313Z" fill="white"/>
<path d="M46.0197 14.1479H44.8895V15.1334H46.0197V14.1479Z" fill="white"/>
<path d="M41.8839 14.1958H40.8723V15.1313H41.8839V14.1958Z" fill="white"/>
<path d="M44.8895 15.1313H43.8824V16.1081H44.8895V15.1313Z" fill="white"/>
<path d="M46.9171 11.0483H45.8496V12.0859H46.9171V11.0483Z" fill="white"/>
<path d="M45.8518 12.0859H43.8824V13.1256H45.8518V12.0859Z" fill="white"/>
<path d="M43.8801 13.1255H42.8999V15.1311H43.8801V13.1255Z" fill="white"/>
<path d="M40.3061 20.1904H39.2833V21.1911H40.3061V20.1904Z" fill="white"/>
<path d="M40.3038 17.6943H39.2945V18.6689H40.3038V17.6943Z" fill="white"/>
<path d="M42.4836 19.0055H42.1099V20.2015H41.3065V21.1913H40.3061V22.2917H39.5743C40.6955 23.8285 41.302 25.6583 41.302 27.5771C41.302 30.0276 40.3173 32.3306 38.5313 34.0649C36.741 35.7992 34.3664 36.752 31.8397 36.7542C29.3131 36.7542 26.9363 35.7992 25.1481 34.0671C23.36 32.3306 22.3775 30.0276 22.3775 27.5771C22.3775 25.1265 23.3622 22.8214 25.1481 21.0871C26.9385 19.3528 29.3131 18.3999 31.8397 18.3999C33.7846 18.3999 35.6376 18.9686 37.2065 20.0192V19.2247H38.2203V17.6945H39.2923V16.8197H40.1069C37.7973 15.1462 34.9349 14.1543 31.8397 14.1543C24.2104 14.1543 18 20.1754 18 27.5771C18 34.9787 24.2104 41.002 31.842 41.002C39.4735 41.002 45.6817 34.9787 45.6817 27.5771C45.6817 24.3212 44.4777 21.3324 42.4836 19.0055Z" fill="white"/>
<path d="M37.2065 20.019V20.2014H36.5328V21.1825H35.792C34.9617 22.3806 32.8759 26.1205 32.2471 27.6421C29.9755 24.5772 28.2142 23.3639 26.8244 22.9233C26.0769 22.704 25.1728 23.4963 26.4171 24.74C29.2728 27.7875 30.1724 30.3097 31.0408 32.3218C31.4996 33.3832 33.5585 33.5482 33.9726 32.4672C34.8521 30.1838 36.1277 27.6182 37.6361 25.5106V24.4188H38.4418V23.4333H39.29V22.2916H39.572C39.2632 21.8662 38.9163 21.4625 38.5291 21.087C38.1173 20.6876 37.672 20.3316 37.2042 20.019H37.2065Z" fill="white"/>
<path d="M42.4836 19.0056H43.0118V18.183H43.8824V16.1079H42.9021V17.0933H41.8861V16.1079H40.2009V16.8177H40.1114C40.9887 17.4537 41.7854 18.1895 42.4859 19.0056H42.4836Z" fill="white"/>
</g>
<g clip-path="url(#clip2_0_1)">
<path d="M145.972 24.0507L145.372 27.2834C145.921 27.2648 146.326 27.1408 146.628 26.8744C146.928 26.6265 147.123 26.2175 147.227 25.666C147.334 25.133 147.281 24.7241 147.104 24.4576C146.928 24.1911 146.593 24.0486 146.132 24.0486H145.974L145.972 24.0507ZM140 34.796L142.508 21.2249H147.084C148.639 21.2249 149.787 21.5988 150.529 22.3445C151.289 23.0902 151.536 24.1209 151.305 25.3995C151.164 26.1989 150.829 26.8744 150.334 27.4238C149.822 27.9919 149.15 28.436 148.283 28.7747L149.997 34.7795H145.775L144.945 29.5225L143.973 34.7981H140V34.796ZM154.627 28.845H156.766C156.873 28.312 156.854 27.903 156.731 27.6366C156.608 27.3701 156.359 27.2276 156.006 27.2276C155.722 27.2276 155.476 27.3515 155.246 27.618C155.016 27.8844 154.823 28.2934 154.627 28.8429M159.31 31.4724C158.956 32.592 158.338 33.4616 157.454 34.1019C156.571 34.7423 155.529 35.0604 154.328 35.0604C152.933 35.0604 151.924 34.6349 151.324 33.7632C150.724 32.8936 150.564 31.6666 150.864 30.0678C151.164 28.469 151.782 27.2255 152.7 26.3373C153.637 25.4491 154.786 25.005 156.162 25.005C157.664 25.005 158.706 25.3954 159.307 26.1783C159.909 26.9611 160.049 28.1509 159.768 29.7311C159.733 29.9087 159.698 30.0513 159.679 30.1566C159.661 30.2454 159.626 30.3343 159.609 30.4231H154.328L154.309 30.547C154.186 31.239 154.167 31.7554 154.274 32.057C154.381 32.3586 154.627 32.5197 154.999 32.5197C155.283 32.5197 155.529 32.4309 155.725 32.2532C155.936 32.0756 156.096 31.8091 156.255 31.4538H159.312M165.549 34.6514C165.265 34.7939 164.965 34.8993 164.647 34.9716C164.328 35.0439 163.975 35.079 163.605 35.079C162.315 35.079 161.378 34.6349 160.813 33.7281C160.23 32.8399 160.088 31.6149 160.39 30.0513C160.674 28.5227 161.274 27.2978 162.21 26.3931C163.147 25.4883 164.242 25.0256 165.514 25.0256C165.867 25.0256 166.186 25.0608 166.486 25.1145C166.769 25.1847 167.051 25.2735 167.281 25.3995L166.732 28.312C166.625 28.2418 166.502 28.1881 166.379 28.153C166.256 28.1179 166.114 28.0993 165.972 28.0993C165.6 28.0993 165.265 28.2769 164.965 28.6136C164.682 28.9689 164.47 29.4316 164.365 30.0348C164.259 30.6379 164.277 31.1006 164.419 31.4022C164.577 31.7038 164.842 31.8649 165.267 31.8649C165.391 31.8649 165.514 31.8463 165.656 31.8112C165.797 31.7761 165.939 31.7224 166.116 31.6687L165.551 34.6535M166.664 34.796L169.397 20H173.019L170.28 34.796H166.658M176.146 30.0348C176.022 30.7102 176.004 31.2245 176.076 31.5633C176.164 31.9 176.341 32.0776 176.641 32.0776C176.941 32.0776 177.189 31.9 177.401 31.5447C177.612 31.1894 177.789 30.6916 177.912 30.0348C178.036 29.3593 178.054 28.8615 177.966 28.5062C177.877 28.1509 177.682 27.9733 177.401 27.9733C177.119 27.9733 176.871 28.1509 176.659 28.4876C176.448 28.8615 176.271 29.3572 176.148 30.0327M177.119 34.7939L177.314 33.7467C176.873 34.2094 176.45 34.5461 176.024 34.7588C175.601 34.9716 175.176 35.079 174.718 35.079C173.727 35.079 173.021 34.6349 172.632 33.7467C172.226 32.8584 172.172 31.6335 172.474 30.0513C172.774 28.4525 173.269 27.209 173.995 26.3394C174.72 25.4697 175.585 25.0256 176.591 25.0256C177.052 25.0256 177.44 25.133 177.775 25.3458C178.11 25.5586 178.428 25.8787 178.693 26.3414L178.888 25.3107H182.51L180.743 34.796H177.121M182.068 34.796L183.835 25.2756H187.315L187.05 26.6967C187.492 26.1452 187.969 25.7548 188.464 25.4883C188.975 25.2219 189.524 25.0979 190.142 25.0979C190.707 25.0979 191.167 25.2219 191.486 25.4883C191.804 25.7548 192.016 26.1452 192.086 26.6967C192.474 26.1452 192.899 25.7548 193.376 25.4883C193.853 25.2219 194.418 25.0979 195.036 25.0979C195.796 25.0979 196.343 25.3107 196.661 25.7548C196.979 26.1803 197.068 26.8207 196.908 27.6552L195.582 34.8146H191.96L192.986 29.2725C193.039 28.971 193.021 28.7582 192.951 28.6157C192.862 28.4731 192.704 28.4029 192.491 28.4029C192.277 28.4029 192.102 28.4917 191.96 28.6508C191.819 28.8098 191.714 29.0412 191.661 29.3262L190.654 34.8146H187.05L188.076 29.2725C188.129 28.971 188.11 28.7582 188.041 28.6157C187.952 28.4731 187.794 28.4029 187.58 28.4029C187.367 28.4029 187.174 28.4917 187.032 28.6508C186.874 28.8098 186.785 29.0412 186.732 29.3262L185.725 34.8146H182.068M201.131 28.847H203.27C203.377 28.3141 203.358 27.9051 203.235 27.6386C203.112 27.3722 202.863 27.2296 202.51 27.2296C202.226 27.2296 201.98 27.3536 201.75 27.62C201.52 27.8865 201.308 28.2955 201.131 28.845M205.795 31.4745C205.442 32.594 204.823 33.4637 203.94 34.104C203.056 34.7443 202.015 35.0625 200.813 35.0625C199.418 35.0625 198.409 34.6369 197.809 33.7652C197.21 32.8956 197.049 31.6687 197.349 30.0699C197.649 28.4711 198.268 27.2276 199.186 26.3394C200.123 25.4512 201.271 25.007 202.648 25.007C204.149 25.007 205.191 25.3974 205.793 26.1803C206.395 26.9632 206.535 28.153 206.253 29.7332C206.218 29.9108 206.183 30.0533 206.165 30.1587C206.146 30.2475 206.111 30.3363 206.095 30.4252H200.813L200.794 30.5491C200.671 31.2411 200.653 31.7575 200.76 32.0591C200.866 32.3606 201.113 32.5217 201.485 32.5217C201.768 32.5217 202.015 32.4329 202.21 32.2553C202.422 32.0776 202.582 31.8112 202.74 31.4559H205.797" fill="white"/>
<path d="M210.933 30.0534H212.505L212.628 25.0257L210.931 30.0534H210.933ZM205.474 34.796L211.11 21.2249H215.58L216.18 34.796H212.312L212.381 32.8068H210.031L209.359 34.796H205.472H205.474ZM221.639 27.9402C221.374 29.3428 221.304 30.3033 221.392 30.8362C221.499 31.3506 221.78 31.617 222.276 31.617C222.771 31.617 223.14 31.3692 223.424 30.8527C223.707 30.3363 223.989 29.3779 224.254 27.9568C224.519 26.5356 224.607 25.5586 224.5 25.0442C224.394 24.5299 224.112 24.28 223.636 24.28C223.159 24.28 222.752 24.5464 222.469 25.0608C222.185 25.5586 221.904 26.517 221.639 27.9382M223.264 36.9979L222.097 35.0625H221.885C221.797 35.0625 221.727 35.0811 221.674 35.0811C219.96 35.0811 218.758 34.4779 218.052 33.2344C217.345 32.0095 217.203 30.2682 217.61 28.0291C218.033 25.7899 218.812 24.0507 219.977 22.8237C221.141 21.5967 222.557 20.9771 224.252 20.9771C225.947 20.9771 227.132 21.5988 227.82 22.8237C228.527 24.0486 228.669 25.7899 228.244 28.0456C227.997 29.3428 227.644 30.4623 227.149 31.4208C226.653 32.3792 226.035 33.1786 225.275 33.8376L226.707 35.5603L223.262 37M228.969 29.948L230.577 21.227H234.553L232.874 30.3033C232.804 30.6937 232.821 30.9953 232.928 31.1729C233.035 31.3692 233.263 31.458 233.565 31.458C233.883 31.458 234.13 31.3692 234.325 31.1729C234.501 30.9767 234.643 30.6937 234.713 30.3033L236.391 21.227H240.383L238.775 29.948C238.44 31.7244 237.803 33.0216 236.866 33.8376C235.929 34.6535 234.604 35.0625 232.909 35.0625C231.214 35.0625 230.066 34.6535 229.429 33.8376C228.792 33.0196 228.652 31.7244 228.969 29.948ZM239.516 34.7981L242.025 21.227H246L243.492 34.7981H239.516Z" fill="white"/>
</g>
<path d="M331.68 20.0747H325.907V21.7977H330.003C329.801 24.2106 327.801 25.2457 325.916 25.2457C323.429 25.2561 321.407 23.238 321.394 20.7356C321.394 20.7086 321.394 20.6816 321.394 20.6546C321.394 18.0441 323.402 16.0344 325.92 16.0344C327.861 16.0344 329.008 17.2814 329.008 17.2814L330.208 16.0302C330.208 16.0302 328.667 14.3052 325.858 14.3052C322.28 14.3052 319.515 17.3417 319.515 20.6234C319.515 23.9051 322.117 26.9728 325.949 26.9728C329.317 26.9728 331.786 24.6492 331.786 21.2157C331.786 20.4904 331.68 20.0726 331.68 20.0726V20.0747Z" fill="white"/>
<path d="M336.41 18.8257C334.041 18.8257 332.343 20.69 332.343 22.8639C332.343 25.0379 333.99 26.9687 336.439 26.9687C338.656 26.9687 340.471 25.2644 340.471 22.9117C340.471 20.2203 338.358 18.8257 336.41 18.8257ZM336.433 20.4239C337.598 20.4239 338.703 21.3717 338.703 22.8993C338.703 24.4269 337.604 25.3684 336.429 25.3684C335.138 25.3684 334.124 24.3271 334.124 22.8868C334.124 21.4465 335.13 20.4239 336.439 20.4239H336.435H336.433Z" fill="white"/>
<path d="M345.257 18.8257C342.888 18.8257 341.19 20.69 341.19 22.8639C341.19 25.0379 342.836 26.9687 345.286 26.9687C347.502 26.9687 349.318 25.2644 349.318 22.9117C349.318 20.2203 347.205 18.8257 345.257 18.8257ZM345.28 20.4239C346.445 20.4239 347.55 21.3717 347.55 22.8993C347.55 24.4269 346.451 25.3684 345.276 25.3684C343.985 25.3684 342.971 24.3271 342.971 22.8868C342.971 21.4465 343.976 20.4239 345.286 20.4239H345.282H345.28Z" fill="white"/>
<path d="M353.934 18.8296C351.759 18.8296 350.051 20.7458 350.051 22.8969C350.051 25.3473 352.032 26.9726 353.897 26.9726C355.05 26.9726 355.663 26.5112 356.111 25.9833V26.7856C356.111 28.1905 355.264 29.0323 353.984 29.0323C352.703 29.0323 352.129 28.1074 351.908 27.5837L350.353 28.2342C350.904 29.4085 352.015 30.6326 353.996 30.6326C356.163 30.6326 357.807 29.263 357.807 26.3886V19.0748H356.117V19.7649C355.597 19.1995 354.882 18.8317 353.936 18.8317L353.934 18.8296ZM354.091 20.4258C355.157 20.4258 356.252 21.3423 356.252 22.9053C356.252 24.4682 355.159 25.3723 354.066 25.3723C352.908 25.3723 351.827 24.4266 351.827 22.9198C351.827 21.413 352.949 20.4237 354.089 20.4237L354.091 20.4258Z" fill="white"/>
<path d="M365.359 18.8195C363.307 18.8195 361.585 20.4614 361.585 22.8847C361.585 25.4494 363.506 26.9708 365.551 26.9708C367.263 26.9708 368.318 26.0293 368.94 25.1834L367.542 24.2461C367.178 24.8114 366.571 25.3663 365.559 25.3663C364.421 25.3663 363.898 24.7407 363.574 24.1318L368.998 21.8663L368.721 21.2033C368.197 19.9044 366.974 18.8174 365.356 18.8174L365.359 18.8195ZM365.429 20.3845C366.168 20.3845 366.699 20.7794 366.926 21.2532L363.303 22.7767C363.146 21.5962 364.258 20.3845 365.425 20.3845H365.429Z" fill="white"/>
<path d="M358.993 26.7295H360.775V14.729H358.993V26.7274V26.7295Z" fill="white"/>
<path d="M320.105 35.9057C320.465 36.128 320.991 36.3151 321.545 36.3151C322.367 36.3151 322.846 35.8786 322.846 35.2468C322.846 34.6607 322.514 34.3261 321.673 34.0019C320.657 33.6402 320.029 33.1103 320.029 32.227C320.029 31.2522 320.832 30.5269 322.043 30.5269C322.679 30.5269 323.142 30.6765 323.418 30.8345L323.197 31.4933C322.995 31.3811 322.578 31.1961 322.016 31.1961C321.167 31.1961 320.843 31.7074 320.843 32.1355C320.843 32.7216 321.221 33.0084 322.08 33.343C323.133 33.7525 323.668 34.2638 323.668 35.1824C323.668 36.1488 322.958 36.9843 321.489 36.9843C320.888 36.9843 320.233 36.8077 319.901 36.5853L320.103 35.9077L320.105 35.9057Z" fill="white"/>
<path d="M325.645 31.1294C325.653 31.4079 325.451 31.6303 325.129 31.6303C324.842 31.6303 324.639 31.4079 324.639 31.1294C324.639 30.8509 324.852 30.6182 325.147 30.6182C325.443 30.6182 325.647 30.8406 325.647 31.1294H325.645ZM324.74 36.8907V32.3931H325.552V36.8907H324.74Z" fill="white"/>
<path d="M327.88 31.1006V32.3913H329.043V33.0148H327.88V35.4402C327.88 35.9972 328.037 36.3131 328.489 36.3131C328.702 36.3131 328.859 36.2861 328.96 36.257L328.997 36.8701C328.84 36.9345 328.59 36.9824 328.276 36.9824C327.898 36.9824 327.593 36.8618 327.399 36.6394C327.167 36.3983 327.085 35.9993 327.085 35.4693V33.0168H326.393V32.3933H327.085V31.3147L327.878 31.1006H327.88Z" fill="white"/>
<path d="M330.352 34.7893C330.371 35.895 331.073 36.3502 331.885 36.3502C332.467 36.3502 332.819 36.2483 333.122 36.1174L333.261 36.7035C332.973 36.8344 332.486 36.982 331.773 36.982C330.398 36.982 329.576 36.0717 329.576 34.7145C329.576 33.3573 330.369 32.2891 331.672 32.2891C333.13 32.2891 333.519 33.5797 333.519 34.4069C333.519 34.5732 333.5 34.7041 333.492 34.7873H330.352V34.7893ZM332.736 34.2032C332.744 33.6836 332.523 32.8752 331.61 32.8752C330.788 32.8752 330.429 33.6379 330.363 34.2032H332.736Z" fill="white"/>
<path d="M336.4 35.9057C336.76 36.128 337.286 36.3151 337.84 36.3151C338.662 36.3151 339.141 35.8786 339.141 35.2468C339.141 34.6607 338.808 34.3261 337.968 34.0019C336.952 33.6402 336.324 33.1103 336.324 32.227C336.324 31.2522 337.127 30.5269 338.338 30.5269C338.974 30.5269 339.436 30.6765 339.713 30.8345L339.492 31.4933C339.29 31.3811 338.873 31.1961 338.311 31.1961C337.462 31.1961 337.137 31.7074 337.137 32.1355C337.137 32.7216 337.515 33.0084 338.375 33.343C339.428 33.7525 339.963 34.2638 339.963 35.1824C339.963 36.1488 339.253 36.9843 337.784 36.9843C337.183 36.9843 336.528 36.8077 336.196 36.5853L336.398 35.9077L336.4 35.9057Z" fill="white"/>
<path d="M341.543 34.7893C341.562 35.895 342.264 36.3502 343.076 36.3502C343.658 36.3502 344.009 36.2483 344.313 36.1174L344.451 36.7035C344.164 36.8344 343.677 36.982 342.964 36.982C341.589 36.982 340.767 36.0717 340.767 34.7145C340.767 33.3573 341.56 32.2891 342.863 32.2891C344.321 32.2891 344.71 33.5797 344.71 34.4069C344.71 34.5732 344.691 34.7041 344.683 34.7873H341.543V34.7893ZM343.927 34.2032C343.935 33.6836 343.714 32.8752 342.801 32.8752C341.979 32.8752 341.62 33.6379 341.554 34.2032H343.927Z" fill="white"/>
<path d="M349.568 32.393C349.549 32.7172 349.531 33.0809 349.531 33.6296V36.24C349.531 37.2709 349.328 37.9027 348.894 38.2934C348.461 38.7029 347.833 38.8317 347.269 38.8317C346.705 38.8317 346.143 38.7008 345.782 38.4597L345.984 37.8362C346.279 38.0212 346.742 38.1895 347.296 38.1895C348.126 38.1895 348.735 37.7531 348.735 36.6183V36.1174H348.717C348.467 36.5352 347.988 36.8698 347.296 36.8698C346.186 36.8698 345.393 35.922 345.393 34.6771C345.393 33.1537 346.381 32.2891 347.407 32.2891C348.184 32.2891 348.607 32.6985 348.801 33.0705H348.82L348.857 32.393H349.568ZM348.727 34.1679C348.727 34.0287 348.719 33.9081 348.682 33.7959C348.533 33.322 348.136 32.9313 347.546 32.9313C346.769 32.9313 346.215 33.5901 346.215 34.6314C346.215 35.5147 346.659 36.2483 347.535 36.2483C348.033 36.2483 348.485 35.9324 348.661 35.4128C348.706 35.2736 348.725 35.1156 348.725 34.9764V34.1679H348.727Z" fill="white"/>
<path d="M354.618 35.6644C354.618 36.13 354.626 36.5373 354.655 36.8906H353.934L353.889 36.157H353.87C353.657 36.5186 353.186 36.9925 352.393 36.9925C351.691 36.9925 350.85 36.6017 350.85 35.0222V32.3931H351.662V34.8829C351.662 35.7372 351.92 36.3149 352.66 36.3149C353.205 36.3149 353.583 35.9346 353.732 35.5709C353.777 35.4503 353.806 35.3007 353.806 35.1531V32.3931H354.618V35.6644Z" fill="white"/>
<path d="M355.965 33.7962C355.965 33.2663 355.956 32.8111 355.927 32.3933H356.638L356.665 33.2766H356.702C356.904 32.6718 357.394 32.2915 357.939 32.2915C358.032 32.2915 358.096 32.2998 358.171 32.3185V33.0896C358.088 33.0709 358.005 33.0626 357.894 33.0626C357.322 33.0626 356.915 33.499 356.803 34.1121C356.785 34.2244 356.766 34.3532 356.766 34.4925V36.8888H355.963V33.7942L355.965 33.7962Z" fill="white"/>
<path d="M362.938 34.6047C362.938 36.2674 361.793 36.9928 360.713 36.9928C359.503 36.9928 358.571 36.1011 358.571 34.6795C358.571 33.1748 359.55 32.2915 360.788 32.2915C362.025 32.2915 362.94 33.2309 362.94 34.6047H362.938ZM359.391 34.6504C359.391 35.6356 359.955 36.3796 360.748 36.3796C361.541 36.3796 362.105 35.646 362.105 34.6317C362.105 33.869 361.727 32.9025 360.767 32.9025C359.806 32.9025 359.391 33.7942 359.391 34.6484V34.6504Z" fill="white"/>
<path d="M314.336 13H292.388C292.174 13 292 13.1746 292 13.3907V25.1418C292 29.4274 294.055 33.4511 297.517 35.9472L302.722 39.6986C303.296 40.1122 304.069 40.1018 304.631 39.6716L309.495 35.9597C312.787 33.4469 314.723 29.5271 314.723 25.3683V13.3907C314.723 13.1746 314.549 13 314.334 13H314.336ZM310.965 22.7662L302.625 31.1586C302.352 31.433 301.908 31.433 301.634 31.1586L296.404 26.0105C296.131 25.7362 296.131 25.2894 296.404 25.0129L298.013 23.3939C298.292 23.1133 298.746 23.1195 299.017 23.4084L301.865 26.2309L308.136 19.9209C308.408 19.6466 308.852 19.6466 309.127 19.9209L310.963 21.7686C311.236 22.043 311.236 22.4898 310.963 22.7662H310.965Z" fill="white"/>
</g>
<defs>
<clipPath id="clip0_0_1">
<rect width="392" height="55" fill="white"/>
</clipPath>
<clipPath id="clip1_0_1">
<rect width="76" height="31" fill="white" transform="translate(18 10)"/>
</clipPath>
<clipPath id="clip2_0_1">
<rect width="106" height="17" fill="white" transform="translate(140 20)"/>
</clipPath>
</defs>
</svg>
