<svg width="132" height="66" viewBox="0 0 132 66" fill="none" xmlns="http://www.w3.org/2000/svg">
<g clip-path="url(#clip0_245_391)">
<path d="M63.49 11.1668H63.46C63.32 11.1668 63.19 11.1268 63.07 11.0668C62.93 11.1168 62.78 11.1368 62.61 11.1168C62.39 11.0968 62.2 11.0268 62.02 10.9168C61.83 10.9968 61.62 11.0068 61.4 10.9368C60.95 10.7868 60.62 10.4868 60.44 10.0568C59.91 8.77676 60.91 6.71676 61.02 6.48676C61.14 6.24676 61.42 6.14676 61.66 6.24676C61.72 6.22676 61.78 6.20676 61.85 6.20676C61.93 6.20676 62.01 6.22676 62.08 6.26676C62.12 6.24676 62.17 6.22676 62.21 6.21676C62.45 6.16676 62.68 6.29676 62.77 6.50676C62.77 6.52676 62.78 6.53676 62.79 6.55676C62.83 6.52676 62.87 6.50676 62.91 6.48676C63.16 6.38676 63.46 6.51676 63.56 6.76676C63.93 7.70676 64.73 9.99676 64.16 10.8068C64 11.0368 63.76 11.1568 63.47 11.1568L63.49 11.1668Z" fill="#BB9469"/>
<path d="M130.6 9.18652H0.5C0.22 9.18652 0 8.96652 0 8.68652C0 8.40652 0.22 8.18652 0.5 8.18652H130.6C130.88 8.18652 131.1 8.40652 131.1 8.68652C131.1 8.96652 130.88 9.18652 130.6 9.18652Z" fill="#BB9469"/>
<path d="M41.04 54.2165C40.01 54.2165 39.03 54.0665 38.1 53.7565C35.63 52.9265 32.44 50.5565 31.32 44.0265C27.12 19.6865 61.79 8.3265 62.14 8.2065C62.27 8.1665 62.41 8.1765 62.53 8.2465C62.65 8.3165 62.74 8.4265 62.77 8.5565C67.5 26.8765 60.3 41.6365 52.7 48.7065C48.85 52.2865 44.68 54.2165 41.03 54.2165H41.04ZM61.94 9.3365C57.71 10.8265 28.53 21.9565 32.31 43.8565C33.14 48.6365 35.25 51.7365 38.43 52.8065C42.29 54.1065 47.38 52.3065 52.03 47.9765C59.36 41.1665 66.3 26.9865 61.94 9.3365Z" fill="#BB9469"/>
<path d="M79.73 49.0964C76.42 49.0964 72.67 47.2664 69.3 43.9164C62.9 37.5664 57.09 24.4864 61.77 8.54638C61.81 8.41638 61.9 8.30638 62.02 8.24638C62.14 8.18638 62.28 8.17638 62.41 8.21638C62.72 8.31638 92.92 18.8364 88.49 40.2364C87.29 46.0564 84.35 48.0864 82.09 48.7664C81.34 48.9964 80.55 49.1064 79.73 49.1064V49.0964ZM62.58 9.33638C58.3 24.6264 63.87 37.1164 70 43.2064C73.94 47.1164 78.35 48.8364 81.79 47.7964C84.65 46.9364 86.62 44.2464 87.5 40.0264C91.45 20.9664 66.44 10.7864 62.58 9.33638Z" fill="#BB9469"/>
<path d="M44.57 17.8066C43.49 17.8066 42.54 17.6066 41.74 17.1966C40.08 16.3466 39.2 14.6466 39.26 12.4066C39.36 8.62664 42.25 3.36664 47.42 1.04664C50.15 -0.173363 52.77 -0.313363 55.21 0.646637C60.15 2.58664 62.6 8.24664 62.7 8.48664C62.79 8.69664 62.72 8.94664 62.54 9.07664C54.95 14.8066 48.73 17.7966 44.56 17.7966L44.57 17.8066ZM51.9 1.01664C50.59 1.01664 49.23 1.32664 47.83 1.95664C43.21 4.02664 40.36 8.90664 40.26 12.4266C40.23 13.7266 40.53 15.4466 42.19 16.3066C43.81 17.1366 48.92 18.0266 61.61 8.52664C61 7.28664 58.71 3.08664 54.84 1.57664C53.89 1.20664 52.9 1.01664 51.89 1.01664H51.9Z" fill="#BB9469"/>
<path d="M79.91 17.9666C75.74 17.9666 69.51 14.8166 61.94 8.81664C61.76 8.67664 61.7 8.42664 61.8 8.21664C61.91 7.97664 64.49 2.37664 69.47 0.556638C71.94 -0.343362 74.56 -0.153362 77.25 1.13664C82.36 3.57664 85.12 8.90664 85.13 12.6866C85.13 14.9266 84.22 16.6066 82.54 17.4166C81.79 17.7866 80.9 17.9666 79.9 17.9666H79.91ZM62.88 8.28664C75.34 18.0866 80.48 17.3166 82.11 16.5266C83.79 15.7066 84.14 13.9966 84.14 12.6966C84.13 9.17664 81.39 4.22664 76.82 2.04664C74.38 0.876638 72.02 0.696638 69.82 1.49664C65.91 2.91664 63.52 7.05664 62.88 8.28664Z" fill="#BB9469"/>
<path d="M61.28 65.7468C61.01 65.7468 60.79 65.5268 60.78 65.2568C60.65 60.0668 59.13 56.8368 57.21 52.7468C55.58 49.2768 53.73 45.3568 52.12 39.1768C48.53 25.4468 61.31 8.81676 61.85 8.11676C61.94 7.99676 62.09 7.92676 62.24 7.92676C62.39 7.92676 62.54 7.98676 62.63 8.10676C63.01 8.56676 71.99 19.5568 71.99 28.8768C71.99 38.1968 73.15 42.7268 73.16 42.7768C73.23 43.0468 73.06 43.3168 72.8 43.3868C72.52 43.4568 72.26 43.2868 72.19 43.0268C72.14 42.8268 70.99 38.0968 70.99 28.8868C70.99 21.0168 64.01 11.5168 62.26 9.25676C60.13 12.1768 49.97 26.9868 53.09 38.9368C54.68 45.0268 56.5 48.9068 58.12 52.3368C60.09 56.5368 61.65 59.8468 61.78 65.2568C61.78 65.5368 61.57 65.7668 61.29 65.7668H61.28V65.7468Z" fill="#BB9469"/>
</g>
<defs>
<clipPath id="clip0_245_391">
<rect width="131.1" height="65.75" fill="white"/>
</clipPath>
</defs>
</svg>
