<svg width="358" height="21" viewBox="0 0 358 21" fill="none" xmlns="http://www.w3.org/2000/svg">
<g clip-path="url(#clip0_491_4)">
<path d="M164.493 8.00664C165.044 8.85841 166.056 9.30752 166.994 9.15265C167.931 9.01327 168.735 8.25443 169.137 7.38717C169.554 6.50442 169.584 5.43584 169.212 4.5531C169.033 4.11947 168.75 3.70133 168.408 3.34513C168.065 2.98894 167.678 2.69469 167.262 2.47788C166.413 2.02876 165.431 1.88938 164.508 2.09071C164.046 2.18363 163.6 2.35398 163.198 2.58628C162.796 2.83407 162.409 3.14381 162.081 3.5C160.742 4.92478 160.146 7.07743 160.504 9.02876C160.682 10.0044 161.099 10.9181 161.709 11.708C162.32 12.5133 163.064 13.1947 163.898 13.7677C165.565 14.8982 167.559 15.5332 169.569 15.8119C171.593 16.0907 173.662 16.0597 175.702 15.7345C177.741 15.4093 179.735 14.8053 181.596 13.8916C182.519 13.4425 183.412 12.9004 184.246 12.281C185.079 11.6615 185.794 10.9491 186.374 10.0819C187.506 8.36283 187.937 6.14823 187.491 4.11947C187.267 3.11283 186.791 2.16814 186.062 1.5177C185.704 1.19248 185.273 0.960177 184.811 0.85177C184.365 0.743363 183.859 0.727876 183.427 0.85177C182.995 0.975664 182.638 1.26991 182.37 1.67257C182.117 2.05973 181.953 2.53982 181.879 3.0354C181.73 4.04204 181.879 5.09513 182.236 6.05531C182.593 7.01549 183.174 7.88274 183.918 8.57965C184.663 9.26106 185.556 9.74115 186.508 9.98894C188.443 10.5 190.512 10.1438 192.418 9.4469C194.353 8.73451 196.199 7.68142 198.208 6.86062C199.205 6.45796 200.262 6.08628 201.379 5.91593C202.495 5.73009 203.686 5.76106 204.802 6.11726H204.743C206.514 6.48894 208.018 7.80531 208.687 9.55531C209.015 10.4381 209.119 11.4447 208.866 12.3894C208.628 13.3341 208.047 14.2013 207.244 14.7279C206.455 15.2544 205.472 15.4867 204.564 15.3164C204.118 15.2544 203.626 15.0531 203.239 14.7588C202.837 14.4801 202.525 14.0774 202.316 13.6438C202.093 13.2102 201.989 12.7146 202.004 12.219C202.004 11.9712 202.049 11.7389 202.093 11.5066C202.153 11.2588 202.257 11.0265 202.391 10.8252C202.897 9.97345 203.954 9.58628 204.802 9.86504C204.936 9.9115 205.011 10.0509 204.966 10.2058C204.936 10.3296 204.817 10.4071 204.683 10.3916C203.999 10.2987 203.358 10.7013 203.105 11.2743C203.046 11.4137 203.001 11.5686 202.971 11.7235C202.957 11.8938 202.942 12.0487 202.971 12.219C203.001 12.5442 203.091 12.854 203.254 13.1173C203.582 13.6593 204.118 14 204.743 14.0465C205.368 14.1084 206.008 13.9381 206.514 13.5664C207.02 13.1947 207.392 12.6372 207.541 12.0177C207.69 11.3827 207.631 10.7013 207.407 10.0819C206.946 8.81195 205.77 7.78982 204.49 7.49558H204.445L204.415 7.48009C203.522 7.18584 202.57 7.13938 201.587 7.27876C200.62 7.41814 199.637 7.71239 198.684 8.08407C196.749 8.81195 194.859 9.8031 192.805 10.5155C191.778 10.8717 190.691 11.104 189.604 11.2124C188.503 11.3053 187.387 11.2124 186.3 10.9027C185.228 10.5774 184.216 10.0044 183.397 9.2146C182.579 8.42478 181.938 7.43363 181.551 6.34956C181.179 5.26549 181.001 4.0885 181.194 2.9115C181.284 2.32301 181.477 1.75 181.819 1.23894C182.162 0.727876 182.668 0.325221 183.263 0.154867C183.859 -0.0154866 184.439 1.6205e-07 185.005 0.123894C185.571 0.263275 186.106 0.557522 186.553 0.929204C187.446 1.70354 187.967 2.8031 188.235 3.91814C188.771 6.1792 188.28 8.59513 187.074 10.5155C186.479 11.4757 185.675 12.3119 184.796 12.9779C183.933 13.6593 183.01 14.2323 182.043 14.7434C180.108 15.7345 178.039 16.4159 175.91 16.8031C173.796 17.1748 171.608 17.2832 169.45 17.0044C167.306 16.7102 165.148 16.0597 163.272 14.8053C162.335 14.1858 161.486 13.4115 160.786 12.4823C160.072 11.5686 159.566 10.4226 159.357 9.26106C158.941 6.90708 159.67 4.36726 161.322 2.69469C161.739 2.27655 162.201 1.92035 162.707 1.62611C163.228 1.33186 163.778 1.13053 164.359 1.03761C165.52 0.836283 166.726 1.0531 167.738 1.62611C168.75 2.19912 169.584 3.11283 170.03 4.24336C170.477 5.37389 170.387 6.70575 169.822 7.75885C169.539 8.2854 169.167 8.75 168.705 9.10619C168.259 9.46239 167.678 9.71018 167.113 9.77212C166.532 9.83407 165.952 9.72566 165.431 9.4469C164.925 9.18363 164.493 8.75 164.21 8.23894C164.151 8.14602 164.18 8.02212 164.285 7.96018C164.374 7.91372 164.493 7.9292 164.538 8.02212L164.493 8.00664Z" fill="#BB9469"/>
<path d="M192.507 12.9779C191.956 12.1261 190.944 11.677 190.006 11.8319C189.069 11.9712 188.265 12.7301 187.863 13.5973C187.446 14.4801 187.416 15.5487 187.788 16.4314C187.967 16.865 188.25 17.2832 188.592 17.6394C188.935 17.9956 189.322 18.2898 189.738 18.5066C190.587 18.9558 191.569 19.0951 192.492 18.8938C192.954 18.8009 193.4 18.6305 193.802 18.3982C194.204 18.1504 194.591 17.8407 194.919 17.4845C196.258 16.0597 196.854 13.9071 196.496 11.9558C196.318 10.9801 195.901 10.0664 195.291 9.27655C194.68 8.47124 193.936 7.78982 193.103 7.21681C191.435 6.08628 189.441 5.45133 187.431 5.17256C185.407 4.8938 183.338 4.92478 181.298 5.25C179.259 5.57522 177.265 6.1792 175.404 7.09292C174.481 7.54203 173.588 8.08407 172.754 8.70354C171.921 9.32301 171.206 10.0354 170.626 10.9027C169.494 12.6217 169.063 14.8363 169.509 16.865C169.733 17.8717 170.209 18.8164 170.938 19.4668C171.296 19.792 171.727 20.0243 172.189 20.1327C172.635 20.2411 173.141 20.2566 173.573 20.1327C174.005 20.0088 174.362 19.7146 174.63 19.3119C174.883 18.9248 175.047 18.4447 175.121 17.9491C175.27 16.9425 175.121 15.8894 174.764 14.9292C174.407 13.969 173.826 13.1018 173.082 12.4049C172.338 11.7235 171.444 11.2434 170.492 10.9956C168.557 10.4845 166.488 10.8407 164.582 11.5376C162.647 12.25 160.801 13.3031 158.792 14.1239C157.795 14.5265 156.738 14.8982 155.621 15.0686C154.505 15.2544 153.314 15.2235 152.198 14.8673H152.257C150.471 14.4801 148.968 13.1637 148.298 11.3827C147.97 10.5 147.881 9.47788 148.149 8.53318C148.402 7.57301 149.012 6.72124 149.816 6.21018C150.62 5.68363 151.617 5.49779 152.525 5.68363C152.987 5.77655 153.463 5.97787 153.85 6.28761C154.237 6.59734 154.55 7 154.743 7.44911C155.145 8.34734 155.1 9.4469 154.579 10.2677C154.326 10.6704 153.984 11.0265 153.537 11.2124C153.314 11.3053 153.061 11.3673 152.808 11.3363C152.555 11.3208 152.317 11.2279 152.123 11.0885C152.004 11.0111 151.974 10.8407 152.049 10.7168C152.123 10.6084 152.257 10.5619 152.376 10.6239C152.972 10.9181 153.567 10.4381 153.85 9.81858C154.133 9.2146 154.088 8.48672 153.776 7.9292C153.463 7.37168 152.927 7 152.317 6.93805C151.692 6.86062 151.037 7 150.531 7.37168C150.024 7.74336 149.637 8.2854 149.474 8.90487C149.31 9.53982 149.369 10.2212 149.593 10.8562C150.054 12.1416 151.23 13.1637 152.525 13.458H152.555L152.585 13.4734C153.478 13.7677 154.43 13.8142 155.413 13.6748C156.38 13.5354 157.363 13.2411 158.316 12.8695C160.251 12.1416 162.141 11.1504 164.195 10.4381C165.222 10.0819 166.309 9.84956 167.396 9.74115C168.497 9.64823 169.613 9.74115 170.7 10.0509C171.772 10.3761 172.784 10.9491 173.603 11.7389C174.421 12.5288 175.062 13.5199 175.449 14.604C175.821 15.6881 175.999 16.865 175.806 18.042C175.716 18.6305 175.523 19.2035 175.181 19.7146C174.838 20.2257 174.332 20.6283 173.737 20.8142C173.141 20.9845 172.561 20.969 171.995 20.8296C171.43 20.6903 170.894 20.396 170.447 20.0243C169.554 19.25 169.033 18.1504 168.765 17.0354C168.229 14.7743 168.72 12.3584 169.926 10.4381C170.521 9.47787 171.325 8.64159 172.204 7.97566C173.067 7.29425 173.99 6.72124 174.957 6.21018C176.892 5.21903 178.961 4.53761 181.09 4.15044C183.204 3.77876 185.392 3.67035 187.55 3.94911C189.694 4.24336 191.852 4.8938 193.728 6.14823C194.665 6.7677 195.514 7.54203 196.214 8.47124C196.928 9.38495 197.434 10.531 197.643 11.6925C198.059 14.0465 197.33 16.5863 195.678 18.2588C195.261 18.677 194.799 19.0332 194.293 19.3274C193.772 19.6217 193.222 19.823 192.641 19.9159C191.48 20.1173 190.289 19.9004 189.262 19.3274C188.25 18.7544 187.416 17.8407 186.97 16.7102C186.523 15.5796 186.613 14.2478 187.178 13.1947C187.461 12.6681 187.833 12.2035 188.295 11.8473C188.741 11.4911 189.322 11.2434 189.887 11.1814C190.468 11.1195 191.048 11.2279 191.569 11.5066C192.075 11.7699 192.507 12.2035 192.79 12.7146C192.849 12.8075 192.82 12.9314 192.73 12.9934C192.641 13.0398 192.522 13.0243 192.477 12.9314L192.507 12.9779Z" fill="#BB9469"/>
<path d="M205.442 10.8407C205.442 11.4602 204.966 11.9557 204.371 11.9557C203.775 11.9557 203.299 11.4602 203.299 10.8407C203.299 10.2212 203.775 9.72566 204.371 9.72566C204.966 9.72566 205.442 10.2212 205.442 10.8407Z" fill="#BB9469"/>
<path d="M153.805 10.2058C153.805 10.8252 153.329 11.3208 152.733 11.3208C152.138 11.3208 151.662 10.8252 151.662 10.2058C151.662 9.58628 152.138 9.09071 152.733 9.09071C153.329 9.09071 153.805 9.58628 153.805 10.2058Z" fill="#BB9469"/>
<path d="M166.696 7.40265C166.696 8.20796 166.071 8.8584 165.297 8.8584C164.523 8.8584 163.897 8.20796 163.897 7.40265C163.897 6.59734 164.523 5.9469 165.297 5.9469C166.071 5.9469 166.696 6.59734 166.696 7.40265Z" fill="#BB9469"/>
<path d="M192.968 13.4115C192.968 14.2168 192.343 14.8673 191.569 14.8673C190.795 14.8673 190.17 14.2168 190.17 13.4115C190.17 12.6062 190.795 11.9557 191.569 11.9557C192.343 11.9557 192.968 12.6062 192.968 13.4115Z" fill="#BB9469"/>
</g>
<path d="M145.5 10H0M357.5 10H212" stroke="#BB9469"/>
<defs>
<clipPath id="clip0_491_4">
<rect width="61" height="21" fill="white" transform="translate(148)"/>
</clipPath>
</defs>
</svg>
