<svg width="61" height="22" viewBox="0 0 61 22" fill="none" xmlns="http://www.w3.org/2000/svg">
<g clip-path="url(#clip0_253_1450)">
<path d="M16.4932 8.06728C17.0439 8.91905 18.0561 9.36816 18.9939 9.21329C19.9317 9.07391 20.7355 8.31506 21.1374 7.44781C21.5542 6.56506 21.5839 5.49648 21.2118 4.61374C21.0332 4.18011 20.7504 3.76197 20.408 3.40577C20.0656 3.04958 19.6786 2.75533 19.2618 2.53851C18.4134 2.0894 17.4309 1.95002 16.508 2.15135C16.0466 2.24427 15.6 2.41462 15.1981 2.64692C14.7962 2.89471 14.4092 3.20444 14.0817 3.56064C12.7421 4.98542 12.1466 7.13807 12.5039 9.0894C12.6825 10.0651 13.0993 10.9788 13.7096 11.7686C14.3199 12.5739 15.0642 13.2553 15.8977 13.8283C17.5649 14.9589 19.5595 15.5938 21.569 15.8726C23.5934 16.1513 25.6625 16.1204 27.7018 15.7952C29.7411 15.4699 31.7357 14.8659 33.5964 13.9522C34.5193 13.5031 35.4124 12.9611 36.246 12.3416C37.0795 11.7221 37.794 11.0098 38.3746 10.1425C39.5058 8.42347 39.9375 6.20887 39.491 4.18011C39.2677 3.17347 38.7914 2.22878 38.062 1.57834C37.7047 1.25312 37.2731 1.02082 36.8116 0.912409C36.365 0.804001 35.8589 0.788515 35.4273 0.912409C34.9956 1.0363 34.6384 1.33055 34.3704 1.7332C34.1174 2.12037 33.9536 2.60046 33.8792 3.09604C33.7303 4.10267 33.8792 5.15577 34.2364 6.11595C34.5937 7.07613 35.1742 7.94338 35.9185 8.64028C36.6628 9.3217 37.5559 9.80179 38.5085 10.0496C40.4436 10.5606 42.5127 10.2044 44.418 9.50754C46.3531 8.79515 48.1989 7.74205 50.2084 6.92126C51.2057 6.5186 52.2626 6.14692 53.379 5.97657C54.4954 5.79073 55.6862 5.8217 56.8026 6.1779H56.743C58.5144 6.54958 60.0178 7.86595 60.6876 9.61595C61.0151 10.4987 61.1193 11.5053 60.8663 12.45C60.6281 13.3947 60.0476 14.262 59.2438 14.7885C58.4548 15.3151 57.4724 15.5474 56.5644 15.377C56.1179 15.3151 55.6266 15.1137 55.2396 14.8195C54.8377 14.5407 54.5251 14.1381 54.3167 13.7044C54.0935 13.2708 53.9893 12.7752 54.0041 12.2797C54.0041 12.0319 54.0488 11.7996 54.0935 11.5673C54.153 11.3195 54.2572 11.0872 54.3912 10.8859C54.8973 10.0341 55.9541 9.64692 56.8026 9.92568C56.9365 9.97214 57.011 10.1115 56.9663 10.2664C56.9366 10.3903 56.8175 10.4677 56.6835 10.4522C55.9988 10.3593 55.3587 10.762 55.1057 11.335C55.0461 11.4744 55.0015 11.6292 54.9717 11.7841C54.9568 11.9544 54.9419 12.1093 54.9717 12.2797C55.0015 12.6049 55.0908 12.9146 55.2545 13.1779C55.582 13.7199 56.1179 14.0606 56.743 14.1071C57.3682 14.169 58.0083 13.9987 58.5144 13.627C59.0205 13.2553 59.3926 12.6978 59.5415 12.0783C59.6903 11.4434 59.6308 10.762 59.4075 10.1425C58.9461 8.87259 57.7701 7.85046 56.49 7.55621H56.4453L56.4156 7.54073C55.5224 7.24648 54.5698 7.20002 53.5874 7.3394C52.6198 7.47878 51.6374 7.77303 50.6847 8.14471C48.7496 8.87259 46.8592 9.86374 44.805 10.5761C43.7779 10.9323 42.6913 11.1646 41.6047 11.273C40.5032 11.3659 39.3868 11.273 38.3001 10.9633C37.2284 10.6381 36.2162 10.0651 35.3975 9.27524C34.5788 8.48542 33.9387 7.49427 33.5517 6.4102C33.1796 5.32613 33.001 4.14913 33.1945 2.97214C33.2838 2.38365 33.4773 1.81064 33.8197 1.29958C34.162 0.788515 34.6681 0.38586 35.2635 0.215506C35.8589 0.0451519 36.4395 0.0606386 37.0051 0.184532C37.5708 0.323913 38.1066 0.618161 38.5532 0.989842C39.4463 1.76418 39.9673 2.86374 40.2352 3.97878C40.7711 6.23984 40.2799 8.65577 39.0742 10.5761C38.4788 11.5363 37.675 12.3726 36.7967 13.0385C35.9334 13.7199 35.0105 14.2929 34.0429 14.804C32.1078 15.7952 30.0388 16.4766 27.9102 16.8637C25.7965 17.2354 23.6083 17.3438 21.45 17.0651C19.3065 16.7708 17.1481 16.1204 15.2726 14.8659C14.3348 14.2465 13.4863 13.4721 12.7867 12.5429C12.0722 11.6292 11.5661 10.4832 11.3577 9.3217C10.9409 6.96772 11.6703 4.4279 13.3226 2.75533C13.7394 2.33719 14.2008 1.98099 14.7069 1.68674C15.2279 1.3925 15.7787 1.19117 16.3592 1.09825C17.5202 0.896922 18.726 1.11374 19.7382 1.68674C20.7504 2.25975 21.5839 3.17347 22.0305 4.304C22.4771 5.43453 22.3877 6.76639 21.8221 7.81949C21.5393 8.34604 21.1671 8.81064 20.7057 9.16683C20.2591 9.52303 19.6786 9.77081 19.113 9.83276C18.5324 9.89471 17.9519 9.7863 17.4309 9.50754C16.9248 9.24427 16.4932 8.81064 16.2103 8.29958C16.1508 8.20666 16.1806 8.08276 16.2848 8.02082C16.3741 7.97436 16.4932 7.98984 16.5378 8.08276L16.4932 8.06728Z" fill="#BB9469"/>
<path d="M44.5071 13.0385C43.9563 12.1868 42.9441 11.7377 42.0064 11.8925C41.0686 12.0319 40.2648 12.7908 39.8629 13.658C39.4461 14.5408 39.4163 15.6093 39.7885 16.4921C39.9671 16.9257 40.2499 17.3439 40.5923 17.7C40.9346 18.0562 41.3216 18.3505 41.7384 18.5673C42.5869 19.0164 43.5693 19.1558 44.4922 18.9545C44.9537 18.8616 45.4002 18.6912 45.8021 18.4589C46.204 18.2111 46.591 17.9014 46.9185 17.5452C48.2582 16.1204 48.8536 13.9677 48.4964 12.0164C48.3177 11.0408 47.901 10.127 47.2907 9.33722C46.6804 8.53191 45.9361 7.85049 45.1025 7.27748C43.4354 6.14695 41.4407 5.51199 39.4312 5.23323C37.4068 4.95447 35.3378 4.98545 33.2985 5.31067C31.2592 5.63589 29.2645 6.23987 27.4039 7.15359C26.481 7.6027 25.5879 8.14474 24.7543 8.76421C23.9207 9.38368 23.2062 10.0961 22.6257 10.9633C21.4944 12.6823 21.0627 14.897 21.5093 16.9257C21.7326 17.9324 22.2089 18.877 22.9383 19.5275C23.2955 19.8527 23.7272 20.085 24.1887 20.1934C24.6352 20.3018 25.1413 20.3173 25.573 20.1934C26.0047 20.0695 26.3619 19.7753 26.6298 19.3726C26.8829 18.9854 27.0466 18.5054 27.1211 18.0098C27.2699 17.0031 27.1211 15.95 26.7638 14.9899C26.4066 14.0297 25.826 13.1624 25.0818 12.4655C24.3375 11.7841 23.4444 11.304 22.4917 11.0562C20.5566 10.5452 18.4876 10.9014 16.5823 11.5983C14.6472 12.3107 12.8014 13.3638 10.7919 14.1846C9.79456 14.5872 8.7377 14.9589 7.6213 15.1293C6.50491 15.3151 5.31408 15.2841 4.19768 14.9279H4.25723C2.47099 14.5408 0.967572 13.2244 0.297733 11.4434C-0.0297441 10.5607 -0.119056 9.53854 0.14888 8.59385C0.40193 7.63368 1.01223 6.78191 1.81603 6.27084C2.61984 5.7443 3.61716 5.55846 4.52516 5.7443C4.98661 5.83722 5.46294 6.03854 5.84995 6.34828C6.23697 6.65801 6.54956 7.06067 6.74307 7.50978C7.14498 8.40801 7.10032 9.50757 6.57933 10.3284C6.32628 10.731 5.98392 11.0872 5.53736 11.2731C5.31408 11.366 5.06103 11.4279 4.80798 11.397C4.55493 11.3815 4.31677 11.2885 4.12326 11.1492C4.00417 11.0717 3.9744 10.9014 4.04883 10.7775C4.12326 10.6691 4.25723 10.6226 4.37631 10.6846C4.97172 10.9788 5.56713 10.4987 5.84995 9.87925C6.13277 9.27527 6.08812 8.54739 5.77553 7.98987C5.46294 7.43235 4.92706 7.06067 4.31677 6.99872C3.69158 6.92129 3.03663 7.06067 2.53053 7.43235C2.02443 7.80403 1.63741 8.34607 1.47367 8.96553C1.30993 9.60049 1.36948 10.2819 1.59275 10.9169C2.0542 12.2023 3.23014 13.2244 4.52516 13.5186H4.55493L4.5847 13.5341C5.47782 13.8284 6.43048 13.8748 7.41291 13.7354C8.38046 13.5961 9.36289 13.3018 10.3155 12.9301C12.2506 12.2023 14.1411 11.2111 16.1952 10.4987C17.2223 10.1425 18.309 9.91022 19.3956 9.80182C20.4971 9.7089 21.6135 9.80182 22.7001 10.1116C23.7719 10.4368 24.7841 11.0098 25.6028 11.7996C26.4215 12.5894 27.0615 13.5806 27.4485 14.6647C27.8207 15.7487 27.9993 16.9257 27.8058 18.1027C27.7165 18.6912 27.523 19.2642 27.1806 19.7753C26.8382 20.2863 26.3321 20.689 25.7367 20.8748C25.1413 21.0452 24.5608 21.0297 23.9951 20.8903C23.4295 20.7509 22.8936 20.4567 22.4471 20.085C21.554 19.3107 21.033 18.2111 20.765 17.0961C20.2292 14.835 20.7204 12.4191 21.9261 10.4987C22.5215 9.53854 23.3253 8.70226 24.2035 8.03633C25.0669 7.35492 25.9898 6.78191 26.9573 6.27084C28.8924 5.27969 30.9615 4.59828 33.0901 4.21111C35.2038 3.83943 37.3919 3.73102 39.5503 4.00978C41.6938 4.30403 43.8521 4.95447 45.7277 6.2089C46.6655 6.82837 47.5139 7.6027 48.2135 8.53191C48.928 9.44562 49.4341 10.5916 49.6425 11.7531C50.0593 14.1071 49.3299 16.647 47.6777 18.3195C47.2609 18.7377 46.7994 19.0939 46.2933 19.3881C45.7724 19.6823 45.2216 19.8837 44.6411 19.9766C43.48 20.1779 42.2892 19.9611 41.2621 19.3881C40.2499 18.8151 39.4163 17.9014 38.9698 16.7708C38.5232 15.6403 38.6125 14.3085 39.1782 13.2554C39.461 12.7288 39.8331 12.2642 40.2946 11.908C40.7411 11.5518 41.3216 11.304 41.8873 11.2421C42.4678 11.1801 43.0483 11.2885 43.5693 11.5673C44.0754 11.8306 44.5071 12.2642 44.7899 12.7753C44.8495 12.8682 44.8197 12.9921 44.7304 13.054C44.6411 13.1005 44.522 13.085 44.4773 12.9921L44.5071 13.0385Z" fill="#BB9469"/>
<path d="M57.4423 10.9014C57.4423 11.5209 56.966 12.0165 56.3706 12.0165C55.7752 12.0165 55.2988 11.5209 55.2988 10.9014C55.2988 10.282 55.7752 9.78638 56.3706 9.78638C56.966 9.78638 57.4423 10.282 57.4423 10.9014Z" fill="#BB9469"/>
<path d="M5.80511 10.2664C5.80511 10.8859 5.32878 11.3815 4.73336 11.3815C4.13795 11.3815 3.66162 10.8859 3.66162 10.2664C3.66162 9.64694 4.13795 9.15137 4.73336 9.15137C5.32878 9.15137 5.80511 9.64694 5.80511 10.2664Z" fill="#BB9469"/>
<path d="M18.6959 7.46332C18.6959 8.26863 18.0707 8.91907 17.2967 8.91907C16.5226 8.91907 15.8975 8.26863 15.8975 7.46332C15.8975 6.65801 16.5226 6.00757 17.2967 6.00757C18.0707 6.00757 18.6959 6.65801 18.6959 7.46332Z" fill="#BB9469"/>
<path d="M44.9684 13.4722C44.9684 14.2775 44.3432 14.928 43.5691 14.928C42.7951 14.928 42.1699 14.2775 42.1699 13.4722C42.1699 12.6669 42.7951 12.0165 43.5691 12.0165C44.3432 12.0165 44.9684 12.6669 44.9684 13.4722Z" fill="#BB9469"/>
</g>
<defs>
<clipPath id="clip0_253_1450">
<rect width="61" height="21" fill="white" transform="translate(0 0.0606689)"/>
</clipPath>
</defs>
</svg>
