<svg width="16" height="14" viewBox="0 0 16 14" fill="none" xmlns="http://www.w3.org/2000/svg">
<path d="M10.5688 1H1V9.29427H10.5688V1Z" stroke="#BB9469" stroke-width="1.27604" stroke-linecap="round" stroke-linejoin="round"/>
<path d="M10.5686 4.19012H13.1207L15.0348 6.10419V9.29429H10.5686V4.19012Z" stroke="#BB9469" stroke-width="1.27604" stroke-linecap="round" stroke-linejoin="round"/>
<path d="M3.87078 12.4844C4.7517 12.4844 5.46583 11.7702 5.46583 10.8893C5.46583 10.0084 4.7517 9.29425 3.87078 9.29425C2.98986 9.29425 2.27573 10.0084 2.27573 10.8893C2.27573 11.7702 2.98986 12.4844 3.87078 12.4844Z" stroke="#BB9469" stroke-width="1.27604" stroke-linecap="round" stroke-linejoin="round"/>
<path d="M12.1637 12.4844C13.0446 12.4844 13.7587 11.7702 13.7587 10.8893C13.7587 10.0084 13.0446 9.29425 12.1637 9.29425C11.2828 9.29425 10.5686 10.0084 10.5686 10.8893C10.5686 11.7702 11.2828 12.4844 12.1637 12.4844Z" stroke="#BB9469" stroke-width="1.27604" stroke-linecap="round" stroke-linejoin="round"/>
</svg>
