<svg width="18" height="18" viewBox="0 0 18 18" fill="none" xmlns="http://www.w3.org/2000/svg">
<path d="M17.64 4.09991C17.1663 4.80324 16.5742 5.41904 15.89 5.91991C15.89 5.96991 15.89 6.04991 15.91 6.14991L15.93 6.37991C15.9273 8.35313 15.3391 10.2812 14.24 11.9199C13.67 12.7699 13 13.5399 12.22 14.1999C11.3835 14.8979 10.4283 15.4399 9.4 15.7999C7.93929 16.322 6.37898 16.5051 4.83709 16.3353C3.2952 16.1655 1.8121 15.6473 0.5 14.8199C0.84 14.8399 1.11 14.8599 1.33 14.8599C2.97 14.8599 4.43 14.3599 5.71 13.3599C4.97566 13.3371 4.2659 13.0901 3.676 12.6521C3.08611 12.2142 2.64434 11.6062 2.41 10.9099C2.93528 11.038 3.48587 11.0172 4 10.8499C3.20622 10.6943 2.49172 10.2664 1.98 9.63991C1.4545 9.02051 1.1704 8.23214 1.18 7.41991V7.38991C1.64 7.62991 2.16 7.75991 2.76 7.78991C2.28257 7.47254 1.89175 7.0412 1.62287 6.53487C1.354 6.02854 1.21553 5.46319 1.22 4.88991C1.22 4.27991 1.36 3.68991 1.67 3.09991C2.53757 4.18633 3.62899 5.07311 4.87 5.69991C6.13846 6.34261 7.52939 6.70739 8.95 6.76991C8.87068 6.51035 8.82695 6.24123 8.82 5.96991C8.82 4.99991 9.16 4.16991 9.85 3.48991C10.1817 3.15256 10.5793 2.88703 11.0179 2.70984C11.4566 2.53265 11.927 2.44758 12.4 2.45991C12.876 2.46035 13.3469 2.55817 13.7837 2.74734C14.2205 2.93651 14.614 3.21303 14.94 3.55991C15.74 3.40991 16.48 3.11991 17.17 2.70991C16.9189 3.52721 16.369 4.21989 15.63 4.64991C16.37 4.54991 17.03 4.36991 17.64 4.10991V4.09991Z" fill="#141F36"/>
</svg>
