<svg width="33" height="34" viewBox="0 0 33 34" fill="none" xmlns="http://www.w3.org/2000/svg">
<mask id="mask0_251_1129" style="mask-type:luminance" maskUnits="userSpaceOnUse" x="0" y="0" width="33" height="33">
<path d="M32.52 0.669983H0.52002V32.67H32.52V0.669983Z" fill="white"/>
</mask>
<g mask="url(#mask0_251_1129)">
<path d="M24.794 7.20104C23.7804 6.18237 22.5732 5.3747 21.2426 4.82512C19.9121 4.27554 18.4848 3.99507 17.0442 4.00007C11.008 4.00007 6.08845 8.89503 6.08845 14.901C6.08845 16.8261 6.59699 18.696 7.54774 20.346L6 26L11.804 24.482C13.407 25.351 15.209 25.813 17.0442 25.813C23.0804 25.813 28 20.918 28 14.9121C28 11.997 26.8613 9.25803 24.794 7.20104ZM17.0442 23.965C15.408 23.965 13.805 23.525 12.401 22.7L12.0694 22.502L8.6201 23.404L9.53769 20.06L9.31658 19.719C8.40757 18.2746 7.92488 16.6051 7.92362 14.901C7.92362 9.90703 12.0141 5.83706 17.0331 5.83706C19.4653 5.83706 21.7538 6.78305 23.4673 8.49904C24.3159 9.33939 24.9882 10.339 25.4456 11.4398C25.9029 12.5406 26.1361 13.7209 26.1317 14.9121C26.1537 19.906 22.0633 23.965 17.0442 23.965ZM22.0412 17.1891C21.7648 17.0571 20.416 16.3971 20.1729 16.2981C19.9186 16.21 19.7417 16.1661 19.5538 16.4301C19.3659 16.705 18.8462 17.3211 18.6914 17.497C18.5367 17.6841 18.3709 17.706 18.0945 17.563C17.8181 17.431 16.9336 17.134 15.8945 16.21C15.0763 15.484 14.5347 14.593 14.3688 14.3181C14.214 14.043 14.3467 13.9001 14.4905 13.7571C14.612 13.6361 14.7668 13.4381 14.8995 13.284C15.0322 13.1301 15.0875 13.0091 15.1758 12.8331C15.2643 12.646 15.2201 12.492 15.1538 12.36C15.0875 12.228 14.5347 10.886 14.3135 10.336C14.0925 9.80803 13.8603 9.87403 13.6945 9.86303H13.1638C12.9759 9.86303 12.6884 9.92902 12.4342 10.204C12.1909 10.479 11.4834 11.139 11.4834 12.481C11.4834 13.8231 12.4674 15.121 12.6 15.297C12.7327 15.484 14.5347 18.234 17.2764 19.411C17.9286 19.697 18.4372 19.862 18.8352 19.983C19.4874 20.192 20.0844 20.159 20.5598 20.093C21.0905 20.016 22.1849 19.433 22.406 18.795C22.6382 18.157 22.6382 17.6181 22.5608 17.497C22.4834 17.376 22.3176 17.3211 22.0412 17.1891Z" fill="#141F36"/>
</g>
</svg>
