<svg width="18" height="18" viewBox="0 0 18 18" fill="none" xmlns="http://www.w3.org/2000/svg">
<g clip-path="url(#clip0_243_288)">
<path d="M17.64 4.67995C18 6.06595 18 8.99995 18 8.99995C18 8.99995 18 11.934 17.64 13.32C17.5398 13.7103 17.3366 14.0666 17.0516 14.3516C16.7667 14.6366 16.4104 14.8398 16.02 14.94C14.634 15.3 9 15.3 9 15.3C9 15.3 3.366 15.3 1.98 14.94C1.58964 14.8398 1.23335 14.6366 0.948371 14.3516C0.663395 14.0666 0.460192 13.7103 0.36 13.32C0 11.934 0 8.99995 0 8.99995C0 8.99995 0 6.06595 0.36 4.67995C0.576 3.88795 1.188 3.27595 1.98 3.05995C3.366 2.69995 9 2.69995 9 2.69995C9 2.69995 14.634 2.69995 16.02 3.05995C16.812 3.27595 17.424 3.88795 17.64 4.67995ZM7.2 11.7L11.88 8.99995L7.2 6.29995V11.7Z" fill="#141F36"/>
</g>
<defs>
<clipPath id="clip0_243_288">
<rect width="18" height="18" fill="white"/>
</clipPath>
</defs>
</svg>
